<svg width="561" height="100" fill="none" xmlns="http://www.w3.org/2000/svg">
  <path d="M116.353 67.1c0-.84.099-1.63.297-2.372.247-.791.543-1.508.889-2.15a103.76 103.76 0 001.261-3.708c.445-1.384.989-2.966 1.631-4.746a1.656 1.656 0 01-.074-.519v-.445c0-.988.124-1.804.371-2.447.247-.692.766-1.285 1.557-1.78l6.451-15.126c.297-.593.618-1.26.964-2.002a15.18 15.18 0 011.112-2.002 8.883 8.883 0 011.261-1.631c.445-.445.914-.668 1.409-.668 1.384 0 2.644.791 3.781 2.373 1.137 1.532 2.175 3.485 3.115 5.858.988 2.373 1.878 4.993 2.669 7.86.791 2.867 1.508 5.61 2.15 8.23.693 2.571 1.31 4.845 1.854 6.822.593 1.978 1.162 3.288 1.706 3.93.346.445.642.816.889 1.113.248.247.445.519.594.815.148.247.247.569.296.964.099.346.149.816.149 1.409 0 .79-.124 1.409-.371 1.854-.247.395-.544.692-.89.89a1.972 1.972 0 01-1.038.445 6.503 6.503 0 01-.89.074c-.494 0-.964-.272-1.409-.816a13.53 13.53 0 01-1.26-2.076 29.624 29.624 0 01-.964-2.521 54.692 54.692 0 01-.593-2.299 84.971 84.971 0 00-1.039-3.411c-.247-.89-.519-1.582-.815-2.076-.247-.495-.569-.84-.964-1.038-.346-.198-.841-.297-1.483-.297h-12.457c-.346 0-.643.025-.89.074-.198.05-.396.198-.593.445-.149.198-.297.495-.445.89-.149.395-.346.94-.594 1.631l-2.298 6.6c-.099.988-.272 1.78-.519 2.373-.247.593-.544 1.062-.89 1.408-.297.297-.593.495-.89.594-.296.148-.494.222-.593.222-.791 0-1.409-.173-1.854-.519-.395-.395-.593-1.137-.593-2.225zm11.197-18.389c1.433.05 2.719.099 3.855.148h5.488c.642 0 1.334-.024 2.076-.074a58.318 58.318 0 00-1.335-3.41 46.386 46.386 0 00-1.705-4.005l-2.744-5.858c-.247.149-.618.742-1.112 1.78a100.66 100.66 0 00-1.631 3.633 384.518 384.518 0 00-1.632 4.227 68.267 68.267 0 00-1.26 3.56zm30.616 16.684v-2.744c.05-.741.074-1.359.074-1.853v-3.931c0-.643.025-1.558.075-2.744.098-1.186.197-2.818.296-4.894.148-2.076.371-4.943.668-8.601.098-1.088.346-1.953.741-2.596.395-.692 1.013-1.038 1.854-1.038.395 0 .815.272 1.26.816.445.494.668 1.483.668 2.966v.816c0 .247-.025.543-.074.89.346-1.137.889-2.101 1.631-2.892a10.736 10.736 0 015.487-2.966c.989-.248 1.903-.371 2.744-.371.642 0 1.384.074 2.224.222.89.1 1.706.346 2.447.742a4.4 4.4 0 011.928 1.631c.544.692.816 1.631.816 2.818 0 1.087-.198 1.977-.594 2.67-.395.691-.964 1.037-1.705 1.037-.593 0-.989-.123-1.186-.37a7.304 7.304 0 00-.594-.964c-.197-.346-.519-.643-.964-.89-.445-.297-1.235-.445-2.372-.445h-.742c-3.559 0-6.056.989-7.489 2.966-1.434 1.928-2.15 4.82-2.15 8.676v1.26l.37 10.455c0 .248-.049.569-.148.964a6.503 6.503 0 01-.445 1.113c-.198.395-.47.741-.816 1.038-.296.247-.692.37-1.186.37-1.137 0-1.903-.32-2.299-.963-.346-.693-.519-1.755-.519-3.189zm40.123 4.375c-1.78 0-3.214-.42-4.301-1.26-1.088-.89-1.928-2.052-2.521-3.486-.593-1.433-1.014-3.065-1.261-4.894a68.978 68.978 0 01-.371-5.635c-.049-1.977-.098-3.905-.148-5.784a53.57 53.57 0 00-.222-5.116c-.544 0-1.113.025-1.706.074a23.06 23.06 0 01-1.928.074c-.197 0-.469-.074-.815-.222a7.277 7.277 0 01-.964-.594 5.802 5.802 0 01-.816-1.038c-.198-.395-.297-.865-.297-1.409 0-.988.297-1.829.89-2.52.593-.693 1.261-1.039 2.002-1.039.643 0 1.286.025 1.928.074.643 0 1.335.025 2.076.075 0-.643.025-1.632.075-2.967.098-1.334.247-2.644.445-3.93.247-1.285.593-2.422 1.038-3.41.445-.99 1.038-1.483 1.779-1.483.396 0 .816.296 1.261.89.494.543.741 1.285.741 2.224 0 2.224-.074 3.88-.222 4.968-.099 1.087-.198 1.903-.297 2.447l-.222 1.335c1.779 0 3.559-.025 5.339-.075 1.829-.049 3.658-.074 5.487-.074.346 0 .642.124.89.371.247.247.444.569.593.964.148.346.247.742.296 1.187.099.395.149.766.149 1.112 0 1.038-.272 1.829-.816 2.373-.494.494-.989.741-1.483.741l-10.529-.148c0 .445-.025 1.038-.075 1.78v2.298c0 .84-.024 1.73-.074 2.67v2.595c0 1.334.05 2.62.149 3.855.099 1.187.272 2.25.519 3.189.296.94.692 1.706 1.186 2.299.494.543 1.162.815 2.002.815a4.6 4.6 0 001.78-.37 10.98 10.98 0 001.705-.816c.544-.346.989-.643 1.335-.89s.568-.37.667-.37c.594 0 .989.197 1.187.593.197.346.296.865.296 1.557 0 .741-.247 1.532-.741 2.373a10.27 10.27 0 01-1.706 2.224 10.259 10.259 0 01-2.224 1.706c-.791.444-1.483.667-2.076.667zm19.215-40.338c-.346 0-.741-.05-1.186-.148a4.01 4.01 0 01-1.261-.52 4.495 4.495 0 01-1.038-1.112c-.247-.494-.371-1.137-.371-1.928 0-.543.099-1.087.297-1.63a5.707 5.707 0 01.89-1.41c.346-.445.716-.79 1.112-1.038.445-.296.865-.445 1.26-.445.791 0 1.558.272 2.299.816.791.544 1.186 1.607 1.186 3.188 0 2.818-1.062 4.227-3.188 4.227zm-4.152 37.298c-.05-.248-.124-.84-.223-1.78-.049-.989-.074-2.744-.074-5.265v-3.781c0-1.582.025-3.214.074-4.894.099-1.73.223-3.46.371-5.19.198-1.73.42-3.288.667-4.672.297-1.384.668-2.497 1.113-3.337.444-.89.988-1.335 1.631-1.335.791 0 1.26.346 1.409 1.038.197.692.296 1.508.296 2.447a256.53 256.53 0 01-.445 7.045 98.981 98.981 0 00-.296 7.563c0 1.83.148 3.856.445 6.08.296 2.175.445 4.128.445 5.858 0 1.187-.248 2.101-.742 2.744-.494.593-1.013.89-1.557.89-.84 0-1.508-.248-2.002-.742-.494-.494-.865-1.384-1.112-2.67zm14.06-2.521c0-.297.049-.643.148-1.039a6.57 6.57 0 01.519-1.186c.247-.395.494-.717.742-.964.247-.297.519-.445.815-.445.198 0 .47.223.816.668.445.593.865 1.062 1.261 1.408.444.297.889.544 1.334.742a5.633 5.633 0 001.632.37c.642.05 1.384.075 2.224.075.939 0 1.928-.099 2.966-.297a29.862 29.862 0 002.818-.667c.84-.247 1.532-.52 2.076-.816.593-.296.89-.519.89-.667 0-.494-.495-.89-1.483-1.186-.939-.347-2.151-.668-3.634-.965a79.737 79.737 0 01-4.745-1.112 24.724 24.724 0 01-4.746-1.78c-1.483-.79-2.719-1.779-3.707-2.965-.94-1.236-1.409-2.793-1.409-4.672 0-2.076.42-3.905 1.26-5.487.89-1.631 2.027-2.99 3.411-4.078a13.95 13.95 0 014.598-2.521c1.68-.594 3.336-.89 4.968-.89 2.323 0 4.177.642 5.561 1.928 1.384 1.285 2.076 2.768 2.076 4.449 0 .593-.025 1.236-.074 1.928a8.89 8.89 0 01-.222 2.002 4.952 4.952 0 01-.668 1.557c-.296.395-.741.593-1.334.593-.544 0-.89-.272-1.039-.816-.148-.543-.222-1.235-.222-2.076 0-1.137-.445-1.903-1.335-2.298-.84-.396-2.027-.594-3.559-.594-.84 0-1.78.173-2.818.52-.988.296-1.928.74-2.817 1.334a9.73 9.73 0 00-2.299 1.928c-.593.692-.89 1.409-.89 2.15 0 .89.47 1.557 1.409 2.002.989.396 2.224.742 3.708 1.039 1.483.296 3.064.617 4.745.963 1.681.297 3.263.767 4.746 1.41 1.483.642 2.694 1.532 3.633 2.669.989 1.137 1.483 2.67 1.483 4.597 0 1.73-.544 3.213-1.631 4.45-1.088 1.186-2.398 2.15-3.93 2.891a17.318 17.318 0 01-4.672 1.557c-1.581.346-2.867.52-3.855.52-.742 0-1.607-.075-2.596-.223a8.761 8.761 0 01-2.892-.816 6.926 6.926 0 01-2.298-1.854c-.643-.84-.964-1.952-.964-3.336zm43 5.561c-1.78 0-3.214-.42-4.301-1.26-1.088-.89-1.928-2.052-2.521-3.486-.594-1.433-1.014-3.065-1.261-4.894a68.978 68.978 0 01-.371-5.635c-.049-1.977-.098-3.905-.148-5.784a53.57 53.57 0 00-.222-5.116c-.544 0-1.113.025-1.706.074a23.06 23.06 0 01-1.928.074c-.197 0-.469-.074-.815-.222a7.277 7.277 0 01-.964-.594 5.802 5.802 0 01-.816-1.038c-.198-.395-.297-.865-.297-1.409 0-.988.297-1.829.89-2.52.593-.693 1.261-1.039 2.002-1.039.643 0 1.286.025 1.928.074.643 0 1.335.025 2.076.075 0-.643.025-1.632.075-2.967a50.19 50.19 0 01.444-3.93c.248-1.285.594-2.422 1.039-3.41.444-.99 1.038-1.483 1.779-1.483.396 0 .816.296 1.261.89.494.543.741 1.285.741 2.224 0 2.224-.074 3.88-.222 4.968-.099 1.087-.198 1.903-.297 2.447l-.222 1.335c1.779 0 3.559-.025 5.339-.075 1.829-.049 3.658-.074 5.487-.074.346 0 .642.124.889.371.248.247.445.569.594.964.148.346.247.742.296 1.187.099.395.149.766.149 1.112 0 1.038-.272 1.829-.816 2.373-.494.494-.989.741-1.483.741l-10.529-.148c0 .445-.025 1.038-.075 1.78v2.298c0 .84-.024 1.73-.074 2.67v2.595c0 1.334.05 2.62.149 3.855.098 1.187.271 2.25.519 3.189.296.94.692 1.706 1.186 2.299.494.543 1.162.815 2.002.815a4.6 4.6 0 001.78-.37 10.98 10.98 0 001.705-.816c.544-.346.989-.643 1.335-.89s.568-.37.667-.37c.593 0 .989.197 1.187.593.197.346.296.865.296 1.557 0 .741-.247 1.532-.741 2.373a10.27 10.27 0 01-1.706 2.224 10.259 10.259 0 01-2.224 1.706c-.791.444-1.483.667-2.076.667zm19.215-40.338c-.346 0-.742-.05-1.186-.148a4 4 0 01-1.261-.52 4.476 4.476 0 01-1.038-1.112c-.247-.494-.371-1.137-.371-1.928 0-.543.099-1.087.297-1.63a5.678 5.678 0 01.89-1.41c.346-.445.716-.79 1.112-1.038.445-.296.865-.445 1.26-.445.791 0 1.558.272 2.299.816.791.544 1.186 1.607 1.186 3.188 0 2.818-1.062 4.227-3.188 4.227zm-4.152 37.298c-.05-.248-.124-.84-.223-1.78-.049-.989-.074-2.744-.074-5.265v-3.781c0-1.582.025-3.214.074-4.894.099-1.73.223-3.46.371-5.19.198-1.73.42-3.288.667-4.672.297-1.384.668-2.497 1.112-3.337.445-.89.989-1.335 1.632-1.335.791 0 1.26.346 1.409 1.038.197.692.296 1.508.296 2.447a256.53 256.53 0 01-.445 7.045 98.981 98.981 0 00-.296 7.563c0 1.83.148 3.856.445 6.08.296 2.175.444 4.128.444 5.858 0 1.187-.247 2.101-.741 2.744-.494.593-1.013.89-1.557.89-.841 0-1.508-.248-2.002-.742-.495-.494-.865-1.384-1.112-2.67zm16.803-4.746c0-2.521.025-5.017.074-7.49.099-2.52.173-5.165.223-7.933v-1.706l-2.373.149h-2.299c-.642 0-1.186-.346-1.631-1.038a4.556 4.556 0 01-.593-2.3c0-.79.222-1.532.667-2.224.495-.741 1.038-1.112 1.632-1.112l4.819.148h.297a73.486 73.486 0 011.261-7.34c.543-2.423 1.285-4.573 2.224-6.452.939-1.927 2.076-3.485 3.411-4.671 1.335-1.187 2.917-1.78 4.746-1.78.444 0 1.062.124 1.853.371a8.65 8.65 0 012.373 1.112 7.657 7.657 0 012.076 1.706c.594.642.89 1.36.89 2.15a8.2 8.2 0 01-.074.964c0 .346-.049.692-.148 1.038a2.508 2.508 0 01-.445.89.728.728 0 01-.668.37 3.614 3.614 0 01-1.483-.296l-1.334-.741c-.445-.247-.915-.47-1.409-.668a3.594 3.594 0 00-1.631-.37c-1.335 0-2.447.444-3.337 1.334-.841.89-1.533 2.002-2.076 3.337-.495 1.335-.89 2.818-1.187 4.449a38.14 38.14 0 00-.445 4.597h8.083a5.86 5.86 0 01.964-.074c.346-.05.667-.074.964-.074.494 0 .964.198 1.408.593.445.396.668 1.236.668 2.521 0 .89-.124 1.582-.371 2.077-.198.444-.47.79-.816 1.038a2.369 2.369 0 01-1.038.37 6.43 6.43 0 01-.89.075 182.37 182.37 0 01-3.04-.149c-.84-.05-1.582-.099-2.224-.148a19.779 19.779 0 00-1.632-.074h-2.15a324.405 324.405 0 01-.222 6.97 300.928 300.928 0 00-.223 7.415c0 .544.124 1.557.371 3.04s.371 3.09.371 4.82c0 1.038-.173 1.78-.519 2.225-.346.444-.791.667-1.335.667-.791 0-1.434-.099-1.928-.297-.494-.148-.89-.494-1.186-1.038-.248-.593-.421-1.384-.519-2.373-.099-1.038-.149-2.397-.149-4.078zm30.147 3.263a142.38 142.38 0 01-2.15-4.968c-.841-2.027-1.706-4.103-2.596-6.229a504.129 504.129 0 00-2.447-6.08 175.25 175.25 0 01-1.853-4.672 9.92 9.92 0 01-.593-1.705c-.099-.594-.149-1.063-.149-1.41.05-1.136.322-2.05.816-2.743.544-.692 1.162-1.038 1.854-1.038.543 0 .964.297 1.26.89.297.593.569 1.236.816 1.928a149.687 149.687 0 001.854 5.19l2.224 5.784a670.477 670.477 0 012.225 5.487c.692 1.681 1.26 2.991 1.705 3.93l10.159-19.798c.543-1.088 1.211-1.928 2.002-2.521.84-.593 1.681-.89 2.521-.89.494 0 .865.322 1.112.964.247.593.371 1.162.371 1.706 0 .593-.173 1.186-.519 1.78-.297.592-.964 1.705-2.002 3.336a102.969 102.969 0 01-2.595 3.93c-1.039 1.582-2.2 3.707-3.486 6.377a490.327 490.327 0 01-3.336 6.525 289.398 289.398 0 00-3.93 7.86 130.52 130.52 0 00-3.263 7.638c-.89 2.422-1.335 4.4-1.335 5.932 0 .89-.222 1.78-.667 2.669-.395.89-.964 1.335-1.705 1.335-.297 0-.643-.124-1.039-.371a9.076 9.076 0 01-1.112-.964 5.348 5.348 0 01-.89-1.186c-.247-.396-.37-.791-.37-1.187 0-.593.148-1.409.445-2.447.296-.988.642-2.076 1.038-3.262a98.246 98.246 0 011.409-3.411 27.367 27.367 0 011.483-2.966l2.743-5.413z" fill="#0D47A1"/>
  <path d="M402.197 70.988c-.358-.717-.65-1.995-.874-3.833-2.891 3.004-6.343 4.505-10.355 4.505-3.586 0-6.533-1.008-8.842-3.026-2.286-2.04-3.429-4.617-3.429-7.732 0-3.788 1.434-6.724 4.303-8.809 2.892-2.107 6.948-3.16 12.171-3.16h6.051v-2.858c0-2.174-.65-3.9-1.95-5.177-1.3-1.3-3.216-1.95-5.749-1.95-2.219 0-4.079.56-5.581 1.68-1.501 1.121-2.252 2.477-2.252 4.069h-6.254c0-1.816.639-3.564 1.917-5.245 1.3-1.703 3.048-3.048 5.245-4.034 2.218-.986 4.65-1.48 7.295-1.48 4.191 0 7.475 1.054 9.851 3.16 2.376 2.085 3.608 4.965 3.698 8.641v16.743c0 3.34.426 5.996 1.278 7.968v.538h-6.523zm-10.321-4.74c1.95 0 3.799-.505 5.547-1.514 1.748-1.008 3.015-2.32 3.799-3.933v-7.464h-4.875c-7.62 0-11.43 2.23-11.43 6.69 0 1.95.65 3.475 1.95 4.573 1.3 1.098 2.969 1.647 5.009 1.647zm32.074 4.74h-6.22V34.61h6.22v36.377zm-6.725-46.026c0-1.009.303-1.86.908-2.555.628-.695 1.547-1.043 2.757-1.043 1.21 0 2.129.348 2.757 1.043.628.695.941 1.546.941 2.555 0 1.008-.313 1.849-.941 2.521-.628.673-1.547 1.009-2.757 1.009-1.21 0-2.129-.336-2.757-1.009-.605-.672-.908-1.513-.908-2.521z" fill="#1E88E5"/>
  <path d="M358.001 67.211c0-1.159.338-2.124 1.014-2.896.7-.773 1.738-1.159 3.114-1.159 1.375 0 2.413.386 3.113 1.159.724.772 1.086 1.737 1.086 2.896 0 1.11-.362 2.04-1.086 2.788-.7.748-1.738 1.122-3.113 1.122-1.376 0-2.414-.374-3.114-1.122-.676-.748-1.014-1.677-1.014-2.788z" fill="#FFAB00"/>
  <path d="M26 33.224C26 22.607 34.607 14 45.224 14H76.29c10.617 0 19.224 8.607 19.224 19.224v30.552C95.515 74.393 86.908 83 76.29 83H45.224C34.607 83 26 74.393 26 63.776V33.224z" fill="#1976D2"/>
  <path d="M81.354 40.948a6.608 6.608 0 110-13.217 6.608 6.608 0 010 13.217zM71.056 54.164a4.034 4.034 0 110-8.067 4.034 4.034 0 010 8.067zm-19.911 0c-2.322 0-4.205-1.806-4.205-4.033 0-2.228 1.883-4.034 4.205-4.034 2.323 0 4.206 1.806 4.206 4.034 0 2.227-1.883 4.033-4.206 4.033zM41.019 40.948a6.608 6.608 0 110-13.217 6.608 6.608 0 010 13.217zm20.168 0c-3.603 0-6.523-2.959-6.523-6.608 0-3.65 2.92-6.609 6.523-6.609 3.602 0 6.522 2.959 6.522 6.609s-2.92 6.608-6.523 6.608z" fill="#fff"/>
  <path fill-rule="evenodd" clip-rule="evenodd" d="M49.294 50.111L39.216 34.445l2.166-1.393 9.55 14.848 8.656-13.455.05.032-.02-.032 2.164-1.393 9.65 15.002 8.755-13.609 2.165 1.393-10.077 15.666-2.166-1.393.293-.455-.707.455-8.562-13.309-9.457 14.702-2.165-1.393.153-.238-.37.238z" fill="#fff"/>
  <path fill-rule="evenodd" clip-rule="evenodd" d="M65.306 54.336V51.76h-8.239v2.575h8.239zm-9.955-4.291h11.671v6.007H55.351v-6.007z" fill="#fff"/>
  <path d="M70.608 62.785c0 5.35-4.273 9.686-9.545 9.686s-9.545-4.337-9.545-9.686c0-5.35 4.273-9.687 9.545-9.687s9.545 4.337 9.545 9.687z" fill="#fff"/>
  <path d="M60.358 72.471l-9.06-8.84c.899 6.622-4.997 8.653-8.056 8.84h17.116z" fill="#fff"/>
</svg>
