<svg width="561" height="100" viewBox="0 0 561 100" fill="none" xmlns="http://www.w3.org/2000/svg">
<path d="M135.254 72.4C129.853 72.4 125.669 71.0022 122.7 68.2067C119.773 65.37 118.227 61.115 118.062 55.4417C118.021 54.2083 118 52.4611 118 50.2C118 47.9389 118.021 46.2122 118.062 45.02C118.227 39.47 119.835 35.2561 122.886 32.3783C125.937 29.4594 130.059 28 135.254 28C140.408 28 144.51 29.4594 147.561 32.3783C150.612 35.2561 152.22 39.47 152.385 45.02C152.467 47.4044 152.509 49.1311 152.509 50.2C152.509 51.2278 152.467 52.975 152.385 55.4417C152.22 61.115 150.653 65.37 147.685 68.2067C144.758 71.0022 140.614 72.4 135.254 72.4ZM135.254 67.1583C138.511 67.1583 141.109 66.1717 143.047 64.1983C144.984 62.225 146.036 59.2033 146.201 55.1333C146.283 52.6667 146.324 51.0222 146.324 50.2C146.324 49.2956 146.283 47.6511 146.201 45.2667C146.036 41.1967 144.964 38.175 142.985 36.2017C141.047 34.2283 138.47 33.2417 135.254 33.2417C131.997 33.2417 129.379 34.2283 127.4 36.2017C125.462 38.175 124.411 41.1967 124.246 45.2667C124.205 46.4589 124.184 48.1033 124.184 50.2C124.184 52.2556 124.205 53.9 124.246 55.1333C124.411 59.2033 125.462 62.225 127.4 64.1983C129.379 66.1717 131.997 67.1583 135.254 67.1583Z" fill="#FF6863"/>
<path d="M159.114 71.7833C158.784 71.7833 158.475 71.66 158.186 71.4133C157.939 71.1667 157.815 70.8583 157.815 70.4883C157.815 70.1183 157.959 69.7483 158.248 69.3783L169.009 55.38L158.928 42.1217C158.64 41.7928 158.495 41.4228 158.495 41.0117C158.495 40.6417 158.619 40.3333 158.866 40.0867C159.114 39.84 159.423 39.7167 159.794 39.7167H162.948C163.566 39.7167 164.102 40.0456 164.556 40.7033L172.781 51.3717L181.006 40.765C181.254 40.4361 181.48 40.1894 181.686 40.025C181.934 39.8194 182.243 39.7167 182.614 39.7167H185.644C186.015 39.7167 186.325 39.84 186.572 40.0867C186.819 40.3333 186.943 40.6417 186.943 41.0117C186.943 41.4228 186.799 41.7928 186.51 42.1217L176.306 55.5033L187.067 69.3783C187.355 69.7483 187.5 70.1183 187.5 70.4883C187.5 70.8583 187.376 71.1667 187.129 71.4133C186.881 71.66 186.572 71.7833 186.201 71.7833H182.923C182.305 71.7833 181.769 71.475 181.315 70.8583L172.657 59.5733L163.876 70.8583C163.628 71.1461 163.381 71.3722 163.133 71.5367C162.927 71.7011 162.639 71.7833 162.268 71.7833H159.114Z" fill="#FF6863"/>
<path d="M199.563 83.5C199.233 83.5 198.945 83.3767 198.697 83.13C198.45 82.8833 198.326 82.5955 198.326 82.2667C198.326 81.9789 198.429 81.6089 198.635 81.1567L203.397 69.8717L191.585 42.06C191.379 41.5256 191.276 41.1761 191.276 41.0117C191.276 40.6417 191.4 40.3333 191.647 40.0867C191.894 39.84 192.204 39.7167 192.575 39.7167H195.605C196.265 39.7167 196.759 40.0661 197.089 40.765L206.489 63.2117L216.137 40.765C216.467 40.0661 216.982 39.7167 217.683 39.7167H220.59C220.961 39.7167 221.27 39.84 221.517 40.0867C221.765 40.3333 221.888 40.6211 221.888 40.95C221.888 41.0733 221.785 41.4433 221.579 42.06L204.016 82.4517C203.686 83.1505 203.171 83.5 202.47 83.5H199.563Z" fill="#FF6863"/>
<path d="M234.794 71.7833C234.382 71.7833 234.031 71.66 233.743 71.4133C233.495 71.1256 233.371 70.7761 233.371 70.365V34.105H221.498C221.085 34.105 220.735 33.9817 220.446 33.735C220.199 33.4472 220.075 33.0978 220.075 32.6867V30.0967C220.075 29.6856 220.199 29.3361 220.446 29.0483C220.735 28.7606 221.085 28.6167 221.498 28.6167H251.306C251.76 28.6167 252.11 28.7606 252.357 29.0483C252.646 29.295 252.79 29.6444 252.79 30.0967V32.6867C252.79 33.0978 252.646 33.4472 252.357 33.735C252.069 33.9817 251.718 34.105 251.306 34.105H239.494V70.365C239.494 70.7761 239.35 71.1256 239.061 71.4133C238.772 71.66 238.422 71.7833 238.01 71.7833H234.794Z" fill="#FF6863"/>
<path d="M255.329 71.7833C254.916 71.7833 254.566 71.66 254.277 71.4133C254.03 71.1256 253.906 70.7761 253.906 70.365V41.1967C253.906 40.7856 254.03 40.4361 254.277 40.1483C254.566 39.8606 254.916 39.7167 255.329 39.7167H258.174C258.586 39.7167 258.936 39.8606 259.225 40.1483C259.513 40.4361 259.658 40.7856 259.658 41.1967V43.91C261.348 41.1144 264.234 39.7167 268.316 39.7167H270.728C271.14 39.7167 271.47 39.8606 271.717 40.1483C272.006 40.395 272.15 40.7239 272.15 41.135V43.6633C272.15 44.0744 272.006 44.4033 271.717 44.65C271.47 44.8967 271.14 45.02 270.728 45.02H267.017C264.791 45.02 263.039 45.6778 261.76 46.9933C260.482 48.2678 259.843 50.015 259.843 52.235V70.365C259.843 70.7761 259.699 71.1256 259.41 71.4133C259.122 71.66 258.771 71.7833 258.359 71.7833H255.329Z" fill="#FF6863"/>
<path d="M285.884 72.4C283.863 72.4 281.988 71.9889 280.256 71.1667C278.524 70.3444 277.143 69.2344 276.112 67.8367C275.123 66.3978 274.628 64.815 274.628 63.0883C274.628 60.375 275.741 58.155 277.968 56.4283C280.235 54.6606 283.286 53.5094 287.12 52.975L296.335 51.68V49.8917C296.335 45.6983 293.923 43.6017 289.099 43.6017C287.285 43.6017 285.801 43.9922 284.647 44.7733C283.492 45.5133 282.627 46.3972 282.049 47.425C281.926 47.795 281.761 48.0622 281.555 48.2267C281.39 48.3911 281.142 48.4733 280.812 48.4733H278.153C277.782 48.4733 277.452 48.35 277.164 48.1033C276.916 47.8156 276.793 47.4867 276.793 47.1167C276.834 46.13 277.287 45.02 278.153 43.7867C279.06 42.5122 280.441 41.4228 282.297 40.5183C284.152 39.5728 286.44 39.1 289.161 39.1C293.779 39.1 297.098 40.1894 299.118 42.3683C301.138 44.5061 302.148 47.1783 302.148 50.385V70.365C302.148 70.7761 302.004 71.1256 301.715 71.4133C301.468 71.66 301.138 71.7833 300.726 71.7833H297.881C297.469 71.7833 297.118 71.66 296.83 71.4133C296.583 71.1256 296.459 70.7761 296.459 70.365V67.7133C295.552 69.0289 294.232 70.1389 292.501 71.0433C290.769 71.9478 288.564 72.4 285.884 72.4ZM287.182 67.775C289.862 67.775 292.047 66.9117 293.738 65.185C295.469 63.4172 296.335 60.8889 296.335 57.6V55.8733L289.161 56.9217C286.234 57.3328 284.028 58.0317 282.544 59.0183C281.06 59.9639 280.318 61.1767 280.318 62.6567C280.318 64.3011 280.998 65.5756 282.359 66.48C283.719 67.3433 285.327 67.775 287.182 67.775Z" fill="#FF6863"/>
<path d="M324.026 72.4C319.614 72.4 316.151 71.1667 313.636 68.7C311.163 66.1922 309.843 62.6978 309.678 58.2167L309.616 55.75L309.678 53.2833C309.843 48.8022 311.163 45.3283 313.636 42.8617C316.151 40.3539 319.614 39.1 324.026 39.1C326.994 39.1 329.509 39.6344 331.571 40.7033C333.632 41.7722 335.158 43.0878 336.147 44.65C337.178 46.2122 337.735 47.7744 337.817 49.3367C337.858 49.7478 337.735 50.0767 337.446 50.3233C337.157 50.57 336.807 50.6933 336.395 50.6933H333.426C333.014 50.6933 332.705 50.6111 332.498 50.4467C332.292 50.2822 332.086 49.9533 331.88 49.46C331.179 47.4867 330.19 46.0889 328.912 45.2667C327.633 44.4033 326.026 43.9717 324.088 43.9717C321.532 43.9717 319.491 44.7733 317.965 46.3767C316.481 47.9389 315.677 50.3439 315.553 53.5917L315.492 55.8117L315.553 57.9083C315.677 61.1972 316.481 63.6228 317.965 65.185C319.45 66.7472 321.49 67.5283 324.088 67.5283C326.026 67.5283 327.633 67.1172 328.912 66.295C330.19 65.4317 331.179 64.0133 331.88 62.04C332.086 61.5467 332.292 61.2178 332.498 61.0533C332.705 60.8478 333.014 60.745 333.426 60.745H336.395C336.807 60.745 337.157 60.8889 337.446 61.1767C337.735 61.4233 337.858 61.7522 337.817 62.1633C337.735 63.6844 337.178 65.2467 336.147 66.85C335.158 68.4122 333.632 69.7278 331.571 70.7967C329.551 71.8655 327.036 72.4 324.026 72.4Z" fill="#FF6863"/>
<path d="M346.646 71.7833C346.233 71.7833 345.883 71.66 345.594 71.4133C345.347 71.1256 345.223 70.7761 345.223 70.365V29.4183C345.223 29.0072 345.347 28.6783 345.594 28.4317C345.883 28.1439 346.233 28 346.646 28H349.552C349.965 28 350.294 28.1439 350.542 28.4317C350.83 28.6783 350.975 29.0072 350.975 29.4183V50.8783L363.158 40.765C363.281 40.6828 363.488 40.5183 363.776 40.2717C364.065 40.0661 364.333 39.9222 364.58 39.84C364.869 39.7578 365.219 39.7167 365.631 39.7167H368.909C369.28 39.7167 369.589 39.84 369.837 40.0867C370.084 40.3333 370.208 40.6417 370.208 41.0117C370.208 41.4639 369.96 41.8544 369.466 42.1833L355.18 54.0233L371.012 69.3783C371.507 69.7894 371.754 70.1594 371.754 70.4883C371.754 70.8583 371.63 71.1667 371.383 71.4133C371.136 71.66 370.826 71.7833 370.455 71.7833H367.239C366.621 71.7833 366.167 71.7217 365.879 71.5983C365.631 71.475 365.26 71.1872 364.766 70.735L350.975 57.6V70.365C350.975 70.7761 350.83 71.1256 350.542 71.4133C350.294 71.66 349.965 71.7833 349.552 71.7833H346.646Z" fill="#FF6863"/>
<path d="M388.403 72.4C384.156 72.4 380.755 71.105 378.199 68.515C375.684 65.8839 374.303 62.3072 374.055 57.785L373.993 55.6883L374.055 53.6533C374.344 49.2133 375.746 45.6778 378.261 43.0467C380.817 40.4156 384.177 39.1 388.341 39.1C392.917 39.1 396.463 40.5594 398.978 43.4783C401.493 46.3561 402.75 50.2617 402.75 55.195V56.2433C402.75 56.6544 402.606 57.0039 402.318 57.2917C402.07 57.5383 401.74 57.6617 401.328 57.6617H379.93V58.2167C380.054 60.8889 380.858 63.1706 382.342 65.0617C383.868 66.9117 385.867 67.8367 388.341 67.8367C390.237 67.8367 391.784 67.4667 392.979 66.7267C394.216 65.9455 395.123 65.1439 395.7 64.3217C396.071 63.8283 396.339 63.5406 396.504 63.4583C396.71 63.335 397.061 63.2733 397.556 63.2733H400.586C400.957 63.2733 401.266 63.3761 401.514 63.5817C401.761 63.7872 401.885 64.075 401.885 64.445C401.885 65.3494 401.307 66.4389 400.153 67.7133C399.04 68.9878 397.453 70.0978 395.391 71.0433C393.371 71.9478 391.041 72.4 388.403 72.4ZM396.875 53.4067V53.2217C396.875 50.385 396.092 48.0828 394.525 46.315C393 44.5061 390.938 43.6017 388.341 43.6017C385.744 43.6017 383.682 44.5061 382.157 46.315C380.672 48.0828 379.93 50.385 379.93 53.2217V53.4067H396.875Z" fill="#FF6863"/>
<path d="M411.567 71.7833C411.155 71.7833 410.805 71.66 410.516 71.4133C410.269 71.1256 410.145 70.7761 410.145 70.365V41.1967C410.145 40.7856 410.269 40.4361 410.516 40.1483C410.805 39.8606 411.155 39.7167 411.567 39.7167H414.412C414.825 39.7167 415.175 39.8606 415.464 40.1483C415.752 40.4361 415.896 40.7856 415.896 41.1967V43.91C417.587 41.1144 420.473 39.7167 424.555 39.7167H426.966C427.379 39.7167 427.709 39.8606 427.956 40.1483C428.245 40.395 428.389 40.7239 428.389 41.135V43.6633C428.389 44.0744 428.245 44.4033 427.956 44.65C427.709 44.8967 427.379 45.02 426.966 45.02H423.256C421.029 45.02 419.277 45.6778 417.999 46.9933C416.721 48.2678 416.082 50.015 416.082 52.235V70.365C416.082 70.7761 415.938 71.1256 415.649 71.4133C415.361 71.66 415.01 71.7833 414.598 71.7833H411.567Z" fill="#FF6863"/>
<path d="M40.3334 74.9334H85.6667V84.0001H40.3334V74.9334Z" fill="#FECFCE"/>
<path d="M40.3334 57.9334C40.3334 47.2927 48.9594 38.6667 59.6 38.6667H66.4C77.0407 38.6667 85.6667 47.2927 85.6667 57.9334V64.7334C85.6667 75.3741 77.0407 84.0001 66.4 84.0001H59.6C48.9594 84.0001 40.3334 75.3741 40.3334 64.7334V57.9334Z" fill="#FECFCE"/>
<path d="M66.5258 67.5937H64.4271V65.495H66.5258V67.5937ZM64.4271 60.248H62.3283V65.495H64.4271V60.248ZM72.8221 58.1493H70.7234V62.3468H72.8221V58.1493ZM70.7234 56.0505H68.6246V58.1493H70.7234V56.0505ZM58.1308 58.1493H56.032V60.248H58.1308V58.1493ZM56.032 56.0505H53.9332V58.1493H56.032V56.0505ZM63.3777 50.8036H65.4764V48.7048H63.3777V50.8036ZM55.5073 50.2789V53.4271H58.6554V50.2789H55.5073ZM60.2295 55.0011H53.9332V48.7048H60.2295V55.0011ZM55.5073 62.8715V66.0196H58.6554V62.8715H55.5073ZM60.2295 67.5937H53.9332V61.2974H60.2295V67.5937ZM68.0999 50.2789V53.4271H71.248V50.2789H68.0999ZM72.8221 55.0011H66.5258V48.7048H72.8221V55.0011ZM70.7234 65.495V62.3468H66.5258V64.4456H68.6246V67.5937H72.8221V65.495H70.7234ZM68.6246 58.1493H64.4271V60.248H68.6246V58.1493ZM64.4271 56.0505H58.1308V58.1493H60.2295V60.248H62.3283V58.1493H64.4271V56.0505ZM65.4764 55.0011V52.9024H63.3777V50.8036H61.2789V55.0011H65.4764ZM57.8684 51.0659H56.2943V52.64H57.8684V51.0659ZM57.8684 63.6585H56.2943V65.2326H57.8684V63.6585ZM70.461 51.0659H68.8869V52.64H70.461V51.0659Z" fill="#D50000"/>
<path d="M56.2001 35.7525C56.2001 34.5602 57.2149 33.5938 58.4667 33.5938H67.5334C68.7853 33.5938 69.8001 34.5602 69.8001 35.7525V37.9112C69.8001 39.1034 68.7853 40.0699 67.5334 40.0699H58.4667C57.2149 40.0699 56.2001 39.1034 56.2001 37.9112V35.7525Z" fill="#FECFCE" stroke="#FF6863" stroke-width="1.1"/>
<path d="M60.7334 23.6635C60.7334 23.1866 61.1393 22.8 61.6401 22.8H64.3601C64.8608 22.8 65.2667 23.1866 65.2667 23.6635V32.7302C65.2667 33.2071 64.8608 33.5937 64.3601 33.5937H61.6401C61.1393 33.5937 60.7334 33.2071 60.7334 32.7302V23.6635Z" fill="#FF6863"/>
<path d="M58.4667 27.1175H63.0001V29.2762H58.4667V27.1175Z" fill="#FF6863"/>
<path d="M56.2001 26.0381C56.2001 25.442 56.7075 24.9588 57.3334 24.9588C57.9593 24.9588 58.4667 25.442 58.4667 26.0381V30.3556C58.4667 30.9517 57.9593 31.435 57.3334 31.435C56.7075 31.435 56.2001 30.9517 56.2001 30.3556V26.0381Z" fill="#FF6863"/>
<path fill-rule="evenodd" clip-rule="evenodd" d="M58.4667 42.2286H67.5334C75.5452 42.2286 82.04 49.9606 82.04 59.4984V81.7334H85.6667V59.4984C85.6667 47.5761 77.5481 37.9111 67.5334 37.9111H58.4667C48.4519 37.9111 40.3334 47.5761 40.3334 59.4984V81.7334H43.96V59.4984C43.96 49.9606 50.4549 42.2286 58.4667 42.2286Z" fill="#FF6863"/>
<path fill-rule="evenodd" clip-rule="evenodd" d="M29 22.4762L29 38.6666L35.4762 38.6666L35.4762 22.4762L29 22.4762ZM29 16L29 22.4761L51.6667 22.4761L51.6667 16L29 16Z" fill="#0091EA"/>
<path fill-rule="evenodd" clip-rule="evenodd" d="M35.4762 84L51.6666 84L51.6666 77.5238L35.4762 77.5238L35.4762 84ZM29 84L35.4761 84L35.4761 61.3333L29 61.3333L29 84Z" fill="#0091EA"/>
<path fill-rule="evenodd" clip-rule="evenodd" d="M97 77.5238L97 61.3334L90.5238 61.3334L90.5238 77.5238L97 77.5238ZM97 84L97 77.5239L74.3333 77.5239L74.3333 84L97 84Z" fill="#0091EA"/>
<path fill-rule="evenodd" clip-rule="evenodd" d="M90.5238 16H74.3334V22.4762H90.5238V16ZM97 16H90.5239V38.6667H97V16Z" fill="#0091EA"/>
</svg>
