<svg width="561" height="100" fill="none" xmlns="http://www.w3.org/2000/svg">
  <path d="M82.065 45.905a1.183 1.183 0 01-.758 1.515l-17.59 5.616a9.717 9.717 0 00-.356-5.087 9.717 9.717 0 00-3.115-4.42l17.446-6.534a1.183 1.183 0 011.534.72l2.839 8.19zM67.552 76.32a1.183 1.183 0 01-1.67-.28l-10.54-15.16a9.718 9.718 0 004.758-1.836 9.718 9.718 0 003.308-4.276l11.376 14.754a1.183 1.183 0 01-.238 1.678l-6.994 5.121zm-38.77-38.303a1.183 1.183 0 011.523-.743l17.383 6.23a9.717 9.717 0 00-2.81 4.256 9.717 9.717 0 00-.211 5.402L26.84 47.75a1.183 1.183 0 01-.78-1.504l2.722-8.23zm11.954 38.147a1.183 1.183 0 001.671-.28l10.54-15.162a9.718 9.718 0 01-4.758-1.835 9.718 9.718 0 01-3.308-4.276L33.505 69.365a1.183 1.183 0 00.238 1.677l6.993 5.122z" fill="#2684FC"/>
  <path fill-rule="evenodd" clip-rule="evenodd" d="M53.86 59.392a8.283 8.283 0 10.528-16.558 8.283 8.283 0 00-.529 16.558zm.198-6.21a2.07 2.07 0 10.132-4.14 2.07 2.07 0 00-.132 4.14z" fill="#0066DA"/>
  <path d="M54.253 21.262l-4.605 4.468a.533.533 0 00-.162.374l-.291 19.438c-.007.475.632 1.045 1.107 1.047 2.372.005 7.648.553 8.829.496.197-.01.19-.227.192-.424l.078-5.175a.533.533 0 00-.166-.394l-2.886-2.746a.533.533 0 01.012-.783l2.708-2.426a.533.533 0 00.01-.784l-2.656-2.508a.533.533 0 01.011-.786l2.99-2.656a.536.536 0 00.179-.39l.028-1.72a.533.533 0 00-.149-.378l-4.474-4.64a.533.533 0 00-.755-.013z" fill="#0066DA"/>
  <path d="M101.684 69.632c-.364 0-.673-.109-.927-.327a1.373 1.373 0 01-.328-.928v-35.63c0-.4.109-.71.328-.928a1.26 1.26 0 01.927-.382h13.86c4.11 0 7.348 1 9.712 3 2.365 2.002 3.547 4.894 3.547 8.677 0 3.783-1.182 6.675-3.547 8.676-2.328 1.964-5.565 2.946-9.712 2.946h-9.658v13.641c0 .364-.128.673-.382.928a1.378 1.378 0 01-.928.327h-2.892zm13.587-19.48c2.655 0 4.656-.6 6.002-1.8 1.382-1.2 2.074-2.946 2.074-5.238 0-2.292-.673-4.038-2.019-5.238-1.346-1.237-3.365-1.856-6.057-1.856h-9.44v14.133h9.44zm26.837 20.026c-1.783 0-3.438-.364-4.965-1.091-1.528-.728-2.747-1.71-3.656-2.947a7.271 7.271 0 01-1.31-4.201c0-2.401.982-4.365 2.947-5.893 2-1.565 4.692-2.583 8.075-3.056l8.13-1.146v-1.582c0-3.71-2.128-5.566-6.384-5.566-1.6 0-2.91.346-3.928 1.037-1.019.655-1.783 1.437-2.292 2.346-.109.328-.255.564-.437.71-.145.145-.363.218-.654.218h-2.347c-.327 0-.618-.11-.873-.328a1.304 1.304 0 01-.327-.873c.036-.873.436-1.855 1.2-2.946.801-1.128 2.019-2.092 3.656-2.892 1.637-.837 3.656-1.255 6.057-1.255 4.074 0 7.002.964 8.785 2.892 1.782 1.892 2.674 4.256 2.674 7.093v17.68c0 .363-.128.672-.382.927-.219.218-.51.327-.873.327h-2.51a1.38 1.38 0 01-.928-.327 1.378 1.378 0 01-.327-.928v-2.346c-.801 1.164-1.965 2.146-3.493 2.947-1.527.8-3.474 1.2-5.838 1.2zm1.146-4.092c2.364 0 4.292-.764 5.784-2.292 1.528-1.564 2.291-3.801 2.291-6.712v-1.527l-6.329.927c-2.583.364-4.529.982-5.839 1.855-1.309.837-1.964 1.91-1.964 3.22 0 1.455.6 2.582 1.801 3.383 1.2.764 2.619 1.146 4.256 1.146zm30.87 4.092c-2.546 0-4.692-.4-6.438-1.2-1.71-.837-3.001-1.783-3.874-2.838-.837-1.055-1.255-1.928-1.255-2.619 0-.364.127-.636.382-.818.291-.219.582-.328.873-.328h2.455c.364 0 .691.182.982.546.873 1.018 1.819 1.819 2.838 2.4 1.018.583 2.382.874 4.092.874 1.892 0 3.419-.364 4.583-1.091 1.201-.764 1.801-1.801 1.801-3.11 0-.874-.255-1.583-.764-2.129-.473-.582-1.309-1.073-2.51-1.473-1.164-.437-2.91-.91-5.238-1.419-3.165-.69-5.42-1.691-6.766-3-1.31-1.31-1.964-3.002-1.964-5.075 0-1.383.4-2.692 1.2-3.929.837-1.273 2.037-2.292 3.601-3.056 1.601-.8 3.511-1.2 5.73-1.2 2.328 0 4.31.382 5.947 1.146 1.637.764 2.856 1.673 3.656 2.728.837 1.019 1.255 1.873 1.255 2.565 0 .327-.127.6-.382.818a1.11 1.11 0 01-.818.328h-2.292c-.437 0-.8-.182-1.091-.546-.582-.691-1.092-1.219-1.528-1.583-.4-.4-1.001-.745-1.801-1.036-.764-.291-1.746-.437-2.946-.437-1.746 0-3.092.382-4.038 1.146-.946.728-1.419 1.692-1.419 2.892 0 .764.2 1.419.6 1.964.4.51 1.164.983 2.292 1.419 1.164.437 2.837.891 5.02 1.364 3.456.728 5.893 1.783 7.312 3.165 1.455 1.346 2.182 3.074 2.182 5.184a7.148 7.148 0 01-1.364 4.256c-.909 1.273-2.255 2.273-4.038 3-1.746.728-3.837 1.092-6.275 1.092zm27.816 0c-2.547 0-4.693-.4-6.439-1.2-1.71-.837-3.001-1.783-3.874-2.838-.837-1.055-1.255-1.928-1.255-2.619 0-.364.127-.636.382-.818.291-.219.582-.328.873-.328h2.455c.364 0 .692.182.983.546.873 1.018 1.818 1.819 2.837 2.4 1.019.583 2.383.874 4.092.874 1.892 0 3.42-.364 4.584-1.091 1.2-.764 1.8-1.801 1.8-3.11 0-.874-.254-1.583-.763-2.129-.473-.582-1.31-1.073-2.51-1.473-1.164-.437-2.911-.91-5.239-1.419-3.164-.69-5.42-1.691-6.766-3-1.309-1.31-1.964-3.002-1.964-5.075 0-1.383.4-2.692 1.2-3.929.837-1.273 2.037-2.292 3.602-3.056 1.6-.8 3.51-1.2 5.729-1.2 2.328 0 4.311.382 5.948 1.146 1.637.764 2.855 1.673 3.655 2.728.837 1.019 1.255 1.873 1.255 2.565 0 .327-.127.6-.382.818a1.11 1.11 0 01-.818.328h-2.292c-.436 0-.8-.182-1.091-.546-.582-.691-1.091-1.219-1.528-1.583-.4-.4-1-.745-1.801-1.036-.763-.291-1.746-.437-2.946-.437-1.746 0-3.092.382-4.038 1.146-.946.728-1.419 1.692-1.419 2.892 0 .764.201 1.419.601 1.964.4.51 1.164.983 2.291 1.419 1.164.437 2.838.891 5.02 1.364 3.456.728 5.893 1.783 7.312 3.165 1.455 1.346 2.183 3.074 2.183 5.184a7.155 7.155 0 01-1.364 4.256c-.91 1.273-2.256 2.273-4.038 3-1.746.728-3.838 1.092-6.275 1.092zm24.777-.546c-.472 0-.836-.109-1.091-.327-.254-.218-.473-.564-.655-1.037l-7.748-25.318-.109-.546c0-.327.109-.6.327-.818.255-.218.528-.327.819-.327h2.401c.363 0 .654.109.873.327.254.182.418.382.491.6l6.057 20.571 6.493-20.353a1.47 1.47 0 01.491-.764c.255-.254.6-.381 1.037-.381h1.855c.436 0 .782.127 1.037.382.254.218.418.472.491.763l6.493 20.353 6.057-20.57c.036-.183.163-.383.382-.601.254-.218.563-.327.927-.327h2.456c.291 0 .545.109.764.327.218.218.327.491.327.818l-.109.546-7.694 25.318c-.182.473-.4.819-.655 1.037-.254.218-.636.327-1.146.327h-2.128c-.982 0-1.582-.454-1.8-1.364l-6.33-19.534-6.329 19.534c-.291.91-.91 1.364-1.856 1.364h-2.128zm47.095.546c-4.002 0-7.112-1.128-9.331-3.383-2.182-2.255-3.347-5.256-3.492-9.003l-.055-2.346.055-2.347c.145-3.71 1.328-6.693 3.547-8.948 2.219-2.292 5.311-3.438 9.276-3.438s7.057 1.146 9.276 3.438c2.219 2.255 3.401 5.238 3.547 8.948.036.4.054 1.182.054 2.347 0 1.163-.018 1.946-.054 2.346-.146 3.747-1.328 6.748-3.547 9.003-2.183 2.255-5.275 3.383-9.276 3.383zm0-4.201c2.291 0 4.092-.728 5.402-2.183 1.346-1.455 2.073-3.547 2.182-6.275.037-.364.055-1.055.055-2.073 0-1.02-.018-1.71-.055-2.074-.109-2.728-.836-4.82-2.182-6.275-1.31-1.455-3.111-2.183-5.402-2.183-2.292 0-4.111.728-5.457 2.183-1.346 1.455-2.055 3.547-2.128 6.275l-.054 2.074.054 2.073c.073 2.728.782 4.82 2.128 6.275s3.165 2.183 5.457 2.183zm20.965 3.655a1.38 1.38 0 01-.928-.327 1.378 1.378 0 01-.327-.928V42.568c0-.364.109-.673.327-.927.255-.255.564-.382.928-.382h2.51c.363 0 .673.127.927.382.255.254.382.563.382.927v2.401c1.492-2.474 4.038-3.71 7.639-3.71h2.128c.364 0 .655.127.873.382.255.218.382.509.382.873v2.237c0 .364-.127.655-.382.873-.218.218-.509.327-.873.327h-3.274c-1.964 0-3.51.582-4.638 1.746-1.127 1.128-1.691 2.674-1.691 4.638v16.042c0 .364-.127.673-.382.928a1.378 1.378 0 01-.928.327h-2.673zm29.254.546c-3.783 0-6.639-1.237-8.567-3.71-1.927-2.474-2.946-5.602-3.055-9.386l-.055-1.636.055-1.637c.109-3.747 1.128-6.857 3.055-9.331 1.928-2.51 4.784-3.765 8.567-3.765 3.747 0 6.694 1.328 8.84 3.983v-12.55c0-.364.109-.655.327-.873.255-.255.564-.382.928-.382h2.619c.364 0 .655.128.873.382.255.218.382.51.382.873v36.231c0 .364-.127.673-.382.928-.218.218-.509.327-.873.327h-2.456c-.363 0-.673-.109-.927-.327a1.378 1.378 0 01-.328-.928v-2.291c-2.109 2.728-5.11 4.092-9.003 4.092zm1.146-4.42c2.51 0 4.383-.818 5.62-2.455 1.273-1.673 1.965-3.656 2.074-5.948.036-.4.054-1.091.054-2.073 0-1.019-.018-1.728-.054-2.128-.073-2.147-.764-4.02-2.074-5.62-1.309-1.601-3.183-2.401-5.62-2.401-2.583 0-4.474.8-5.675 2.4-1.164 1.601-1.8 3.711-1.909 6.33l-.055 1.583c0 6.875 2.546 10.312 7.639 10.312z" fill="#2684FC"/>
  <path d="M363.834 69.632a1.38 1.38 0 01-.928-.327 1.378 1.378 0 01-.327-.928v-35.63c0-.4.109-.71.327-.928.255-.255.564-.382.928-.382h2.728c.4 0 .709.127.927.382.255.218.382.527.382.927V46.28l14.569-13.97c.582-.581 1.292-.872 2.128-.872h2.947c.291 0 .545.109.764.327.218.219.327.473.327.764 0 .291-.073.528-.218.71l-16.861 16.478 17.952 18.061c.182.219.273.473.273.764 0 .291-.109.546-.327.764a1.048 1.048 0 01-.764.327h-3.056c-.8 0-1.51-.309-2.128-.927l-15.606-15.333v15.005c0 .364-.127.673-.382.928a1.373 1.373 0 01-.927.327h-2.728zm40.504.546c-3.747 0-6.748-1.146-9.003-3.438-2.219-2.328-3.438-5.492-3.656-9.494l-.055-1.855.055-1.8c.254-3.93 1.491-7.058 3.71-9.386 2.256-2.328 5.22-3.492 8.894-3.492 4.038 0 7.167 1.291 9.386 3.874 2.219 2.546 3.328 6.002 3.328 10.367v.928c0 .364-.127.673-.382.928-.218.218-.509.327-.873.327h-18.879v.491c.109 2.365.818 4.383 2.128 6.057 1.345 1.637 3.11 2.455 5.292 2.455 1.674 0 3.038-.327 4.093-.982 1.091-.691 1.891-1.4 2.401-2.128.327-.437.563-.691.709-.764.182-.109.491-.164.928-.164h2.673c.328 0 .6.091.819.273.218.182.327.437.327.764 0 .8-.509 1.764-1.528 2.892-.982 1.128-2.382 2.11-4.201 2.947-1.783.8-3.838 1.2-6.166 1.2zm7.475-16.806v-.164c0-2.51-.691-4.547-2.073-6.11-1.346-1.602-3.165-2.402-5.457-2.402-2.291 0-4.11.8-5.456 2.401-1.31 1.564-1.964 3.601-1.964 6.111v.164h14.95zm23.058 16.806c-3.747 0-6.748-1.146-9.003-3.438-2.219-2.328-3.438-5.492-3.656-9.494l-.055-1.855.055-1.8c.254-3.93 1.491-7.058 3.71-9.386 2.256-2.328 5.22-3.492 8.894-3.492 4.038 0 7.167 1.291 9.386 3.874 2.219 2.546 3.328 6.002 3.328 10.367v.928c0 .364-.127.673-.382.928-.218.218-.509.327-.873.327h-18.88v.491c.11 2.365.819 4.383 2.129 6.057 1.345 1.637 3.11 2.455 5.292 2.455 1.674 0 3.038-.327 4.093-.982 1.091-.691 1.891-1.4 2.401-2.128.327-.437.563-.691.709-.764.182-.109.491-.164.928-.164h2.673c.328 0 .6.091.819.273.218.182.327.437.327.764 0 .8-.509 1.764-1.528 2.892-.982 1.128-2.382 2.11-4.201 2.947-1.783.8-3.838 1.2-6.166 1.2zm7.475-16.806v-.164c0-2.51-.691-4.547-2.073-6.11-1.346-1.602-3.165-2.402-5.457-2.402-2.291 0-4.11.8-5.456 2.401-1.31 1.564-1.965 3.601-1.965 6.111v.164h14.951zM455.364 80c-.364 0-.673-.127-.928-.382-.218-.218-.327-.51-.327-.873V42.514c0-.364.109-.655.327-.873.255-.255.564-.382.928-.382h2.51c.364 0 .655.127.873.382.255.218.382.509.382.873v2.4c2.037-2.8 5.02-4.201 8.949-4.201 3.819 0 6.675 1.2 8.566 3.601 1.928 2.401 2.965 5.493 3.11 9.276.037.4.055 1.019.055 1.855 0 .837-.018 1.456-.055 1.856-.145 3.746-1.182 6.838-3.11 9.276-1.928 2.4-4.783 3.601-8.566 3.601-3.784 0-6.73-1.364-8.84-4.092v12.659c0 .364-.109.655-.327.873-.219.255-.51.382-.873.382h-2.674zm11.568-14.242c2.582 0 4.456-.8 5.62-2.4 1.2-1.601 1.855-3.711 1.964-6.33.037-.364.055-.891.055-1.582 0-6.876-2.547-10.313-7.639-10.313-2.51 0-4.402.836-5.675 2.51-1.237 1.637-1.91 3.601-2.019 5.893l-.055 2.073.055 2.128c.073 2.146.764 4.02 2.074 5.62 1.309 1.601 3.182 2.401 5.62 2.401zm30.976 4.42c-3.746 0-6.747-1.146-9.003-3.438-2.219-2.328-3.437-5.492-3.656-9.494l-.054-1.855.054-1.8c.255-3.93 1.492-7.058 3.711-9.386 2.255-2.328 5.22-3.492 8.894-3.492 4.038 0 7.166 1.291 9.385 3.874 2.219 2.546 3.329 6.002 3.329 10.367v.928c0 .364-.128.673-.382.928-.219.218-.51.327-.873.327h-18.88v.491c.109 2.365.819 4.383 2.128 6.057 1.346 1.637 3.11 2.455 5.293 2.455 1.673 0 3.037-.327 4.092-.982 1.092-.691 1.892-1.4 2.401-2.128.328-.437.564-.691.709-.764.182-.109.492-.164.928-.164h2.674c.327 0 .6.091.818.273.219.182.328.437.328.764 0 .8-.51 1.764-1.528 2.892-.982 1.128-2.383 2.11-4.202 2.947-1.782.8-3.837 1.2-6.166 1.2zm7.476-16.806v-.164c0-2.51-.691-4.547-2.074-6.11-1.346-1.602-3.164-2.402-5.456-2.402-2.292 0-4.111.8-5.457 2.401-1.309 1.564-1.964 3.601-1.964 6.111v.164h14.951zm12.963 16.26a1.38 1.38 0 01-.928-.327 1.378 1.378 0 01-.327-.928V42.568c0-.364.109-.673.327-.927.255-.255.564-.382.928-.382h2.51c.364 0 .673.127.928.382.254.254.381.563.381.927v2.401c1.492-2.474 4.038-3.71 7.64-3.71h2.128c.363 0 .654.127.873.382.254.218.382.509.382.873v2.237c0 .364-.128.655-.382.873-.219.218-.51.327-.873.327h-3.274c-1.965 0-3.511.582-4.638 1.746-1.128 1.128-1.692 2.674-1.692 4.638v16.042c0 .364-.127.673-.382.928a1.375 1.375 0 01-.927.327h-2.674z" fill="#0066DA"/>
</svg>
