<svg width="561" height="100" fill="none" xmlns="http://www.w3.org/2000/svg">
  <path d="M69.865 30.292H81.53v49.294c0 2.013-.829 3.947-2.31 5.376a8.061 8.061 0 01-5.595 2.235h-39.22a8.061 8.061 0 01-5.595-2.235c-1.48-1.43-2.309-3.363-2.309-5.376V20.11c0-2.012.828-3.946 2.309-5.375a8.061 8.061 0 015.595-2.235h29.138v11.265h0v.031l-.003.114a10.648 10.648 0 00.13 1.736c.164 1.02.541 2.335 1.45 3.212.82.791 1.443 1.185 2.197 1.346.363.078.735.097 1.14.1.191 0 .419-.002.664-.005.238-.004.492-.007.745-.007z" fill="#FAFAFA" stroke="#BBB"/>
  <path d="M67.26 25.285v-11.69L80.433 26.77h-11.69a1.484 1.484 0 01-1.483-1.484z" fill="#FAFAFA" stroke="#BBB"/>
  <path d="M54.062 41.583c-9.736-.004-17.621 7.892-17.621 17.637 0 7.707 4.933 14.258 11.802 16.664.925.232.784-.426.784-.876v-3.056c-5.342.627-5.559-2.915-5.917-3.507-.724-1.238-2.437-1.554-1.925-2.145 1.216-.627 2.456.157 3.893 2.283 1.04 1.543 3.067 1.282 4.094 1.026a4.978 4.978 0 011.367-2.398c-5.536-.994-7.843-4.378-7.843-8.4 0-1.953.642-3.748 1.902-5.195-.803-2.386.075-4.43.193-4.733 2.287-.205 4.665 1.64 4.85 1.787 1.3-.351 2.783-.537 4.445-.537 1.669 0 3.157.194 4.468.548.445-.339 2.65-1.924 4.775-1.73.114.303.973 2.298.217 4.653 1.275 1.451 1.925 3.262 1.925 5.218 0 4.03-2.323 7.419-7.874 8.397a5.03 5.03 0 011.5 3.589v4.437c.032.355 0 .706.59.706 6.973-2.355 11.992-8.953 11.992-16.727 0-9.75-7.89-17.641-17.617-17.641z" fill="#2B2B2B"/>
  <path d="M34.378 25.297c.316 0 .56.091.732.273.172.177.258.4.258.67a.915.915 0 01-.258.665c-.172.172-.416.258-.732.258-.302 0-.541-.086-.718-.258a.888.888 0 01-.264-.664c0-.27.086-.494.258-.671.171-.182.413-.273.724-.273zm4.523-5.773l.05.79c.529-.62 1.254-.93 2.173-.93 1.009 0 1.699.387 2.07 1.16.549-.773 1.32-1.16 2.314-1.16.832 0 1.45.23 1.854.692.409.461.618 1.142.627 2.04v4.97h-1.693v-4.92c0-.48-.105-.832-.314-1.056-.209-.223-.555-.335-1.038-.335-.386 0-.702.105-.948.314a1.63 1.63 0 00-.509.811l.007 5.187H41.8V22.11c-.023-.89-.476-1.335-1.358-1.335-.679 0-1.16.277-1.443.832v5.48h-1.694v-7.563h1.596zM49.41 23.25c0-1.166.27-2.1.81-2.804.538-.708 1.26-1.062 2.167-1.062.799 0 1.445.28 1.937.839V16.35h1.694v10.737h-1.534l-.083-.783c-.507.615-1.183.922-2.028.922-.883 0-1.598-.356-2.147-1.069-.543-.713-.815-1.682-.815-2.908zm1.694.146c0 .769.147 1.37.44 1.803.297.43.717.643 1.26.643.693 0 1.2-.31 1.52-.93v-3.229c-.311-.605-.813-.908-1.505-.908-.548 0-.971.219-1.269.657-.297.433-.446 1.088-.446 1.964z" fill="#6B6B6B"/>
  <path d="M100.12 69.298h5.521V55.375h7.862l7.433 13.923h6.289l-8.112-14.893c4.485-1.67 6.718-5.426 6.718-10.366 0-6.773-4.181-11.534-12.668-11.534H100.12v36.793zm5.521-18.702v-13.33h6.933c5.449 0 7.701 2.605 7.701 6.773 0 4.15-2.252 6.557-7.63 6.557h-7.004zm26.909 18.702h23.156V64.52h-17.635V53.255h16.224v-4.76h-16.224V37.283h17.421v-4.779H132.55v36.793zm33.408 0l3.359-9.737h14.294l3.341 9.737h5.861l-13.168-36.793h-6.379l-13.169 36.793h5.861zm4.967-14.408l5.396-15.702h.286l5.396 15.702h-11.078zm39.019 14.408c11.149 0 17.599-6.952 17.599-18.45 0-11.444-6.45-18.343-17.224-18.343h-12.222v36.793h11.847zm-6.325-4.85V37.356h6.36c8.005 0 12.133 4.814 12.133 13.492 0 8.713-4.128 13.6-12.472 13.6h-6.021zm30.79-31.943v36.793h5.253V42.656h.34l10.792 26.588h4.36l10.792-26.57h.339v26.624h5.253V32.505h-6.7l-11.65 28.601h-.429l-11.65-28.6h-6.7zm45.156 36.793h23.157V64.52h-17.636V53.255h16.224v-4.76h-16.224V37.283h17.421v-4.779h-22.942v36.793zm58.785-38.374h-5.521v36.793h5.521V30.924zm19.172 37.35c6.486 0 10.685-3.916 11.275-9.288h-5.2c-.679 2.982-2.984 4.743-6.039 4.743-4.521 0-7.433-3.79-7.433-9.81 0-5.91 2.966-9.629 7.433-9.629 3.395 0 5.467 2.156 6.039 4.743h5.2c-.572-5.569-5.093-9.27-11.328-9.27-7.737 0-12.74 5.857-12.74 14.283 0 8.318 4.824 14.228 12.793 14.228zm28.548 0c7.737 0 12.794-5.695 12.794-14.228 0-8.588-5.057-14.283-12.794-14.283-7.736 0-12.793 5.695-12.793 14.283 0 8.533 5.057 14.228 12.793 14.228zm.018-4.51c-5.056 0-7.415-4.437-7.415-9.736 0-5.282 2.359-9.773 7.415-9.773 5.021 0 7.379 4.49 7.379 9.773 0 5.3-2.358 9.737-7.379 9.737zm24.081-12.431c0-4.402 2.68-6.917 6.397-6.917 3.627 0 5.825 2.39 5.825 6.396v16.905h5.342V50.165c0-6.827-3.734-10.402-9.344-10.402-4.128 0-6.826 1.922-8.095 4.85h-.339v-4.49h-5.128v27.594h5.342V51.333zm45.295-4.473c-1.108-4.294-4.449-7.097-10.381-7.097-6.2 0-10.596 3.288-10.596 8.174 0 3.917 2.359 6.522 7.505 7.672l4.645 1.024c2.645.592 3.878 1.778 3.878 3.503 0 2.138-2.27 3.809-5.772 3.809-3.198 0-5.253-1.384-5.896-4.096l-5.164.79c.894 4.886 4.932 7.635 11.096 7.635 6.629 0 11.221-3.539 11.221-8.533 0-3.899-2.466-6.306-7.504-7.474l-4.36-1.006c-3.02-.719-4.324-1.743-4.306-3.611-.018-2.12 2.269-3.629 5.306-3.629 3.324 0 4.86 1.85 5.486 3.7l4.842-.861z" fill="#8B8B8B"/>
</svg>
