<svg width="561" height="100" viewBox="0 0 561 100" fill="none" xmlns="http://www.w3.org/2000/svg">
<path d="M484.981 36.8697C485.024 37.1409 485.046 37.3927 485.046 37.6251C485.046 37.8576 485.046 38.09 485.046 38.3225V40.7051L484.661 70.8659V71.447C484.661 71.6795 484.597 72.0281 484.469 72.493C484.426 72.6868 484.362 72.8998 484.277 73.1323C484.192 73.326 484.106 73.5391 484.021 73.7715C483.807 74.2364 483.509 74.5851 483.124 74.8176C482.783 75.1275 482.228 75.3406 481.459 75.4568C480.264 75.6893 479.175 75.5924 478.193 75.1662C477.638 74.8563 477.254 74.4689 477.041 74.004C476.955 73.9265 476.87 73.8103 476.785 73.6553C476.785 73.5778 476.742 73.4616 476.657 73.3066C476.571 73.1129 476.507 72.9192 476.464 72.7255C476.422 72.493 476.379 72.2606 476.336 72.0281C476.336 71.8344 476.315 71.6407 476.272 71.447C476.272 71.2533 476.251 71.0596 476.208 70.8659C476.123 70.6722 476.08 70.5172 476.08 70.401C476.08 70.246 476.08 70.0717 476.08 69.8779C476.166 69.723 476.208 69.4324 476.208 69.0063L476.272 64.4153L476.336 57.0931H472.878L459.878 57.1512L459.75 70.8659V71.447C459.75 71.6795 459.686 72.0281 459.558 72.493C459.516 72.6868 459.452 72.8998 459.366 73.1323C459.281 73.326 459.195 73.5391 459.11 73.7715C458.897 74.2364 458.598 74.5851 458.213 74.8176C457.872 75.1275 457.317 75.3406 456.548 75.4568C455.353 75.6893 454.264 75.5924 453.282 75.1662C452.856 74.9338 452.45 74.5464 452.066 74.004C451.98 73.849 451.938 73.7328 451.938 73.6553L451.746 73.3066C451.66 73.1129 451.596 72.9192 451.553 72.7255C451.511 72.493 451.468 72.2606 451.425 72.0281C451.425 71.8344 451.404 71.6407 451.361 71.447C451.319 71.2533 451.276 71.0596 451.233 70.8659C451.191 70.5559 451.191 70.2266 451.233 69.8779V69.0063L451.297 64.4153L451.425 55.8727C451.468 54.6329 451.489 53.3544 451.489 52.0372C451.489 50.72 451.489 49.364 451.489 47.9693C451.447 46.5746 451.425 45.3348 451.425 44.25C451.468 43.1653 451.532 41.9449 451.617 40.5889V40.3565C451.66 39.969 451.682 39.5816 451.682 39.1942C451.682 38.768 451.703 38.3419 451.746 37.9157C451.788 37.5283 451.852 37.1602 451.938 36.8116C452.066 36.4241 452.237 36.0367 452.45 35.6493C452.578 35.3394 452.749 35.0875 452.962 34.8938C453.176 34.6614 453.432 34.4483 453.731 34.2546C454.414 33.9446 455.097 33.7897 455.78 33.7897C456.122 33.7897 456.42 33.809 456.677 33.8478C456.933 33.8478 457.189 33.8672 457.445 33.9059C457.957 33.9446 458.448 34.1771 458.918 34.6033C459.259 34.8745 459.494 35.1844 459.622 35.5331C459.836 36.0367 459.964 36.4822 460.007 36.8697C460.049 37.1409 460.071 37.3927 460.071 37.6251C460.071 37.8576 460.071 38.09 460.071 38.3225V40.7051L459.942 50.2938C460.284 50.2938 460.668 50.2938 461.095 50.2938C461.565 50.2938 462.098 50.2744 462.696 50.2357C464.916 50.2357 467.115 50.2551 469.292 50.2938C471.512 50.3326 473.839 50.3519 476.272 50.3519H476.336C476.336 48.6085 476.336 46.9426 476.336 45.3542C476.379 43.7658 476.443 42.0999 476.528 40.3565C476.528 39.969 476.528 39.5816 476.528 39.1942C476.571 38.768 476.614 38.3419 476.657 37.9157C476.699 37.5283 476.763 37.1602 476.849 36.8116C476.977 36.4241 477.147 36.0367 477.361 35.6493C477.446 35.3394 477.596 35.0875 477.809 34.8938C478.065 34.6614 478.364 34.4483 478.706 34.2546C479.303 33.9446 479.965 33.7897 480.691 33.7897C481.032 33.7897 481.331 33.809 481.587 33.8478C481.886 33.8478 482.142 33.8672 482.356 33.9059C482.954 33.9834 483.445 34.2158 483.829 34.6033C484.17 34.797 484.405 35.1069 484.533 35.5331C484.619 35.7655 484.683 35.998 484.725 36.2304C484.811 36.4241 484.896 36.6372 484.981 36.8697Z" fill="#B05130"/>
<path d="M445.37 35.8236C445.84 36.3273 446.075 36.8503 446.075 37.3927C446.075 37.6251 446.053 37.8769 446.011 38.1481C446.011 38.3806 445.989 38.5937 445.947 38.7874C445.818 39.2135 445.541 39.6203 445.114 40.0078C444.772 40.2402 444.303 40.4145 443.705 40.5308C443.406 40.6083 443.107 40.6664 442.809 40.7051C442.51 40.7439 442.19 40.802 441.848 40.8795C441.549 40.9182 441.25 40.9376 440.952 40.9376C440.653 40.9376 440.332 40.9376 439.991 40.9376H436.725C435.957 40.9763 435.188 40.9957 434.42 40.9957C433.694 40.9957 432.968 40.9957 432.242 40.9957C432.285 42.1967 432.306 43.4945 432.306 44.8893C432.306 46.2452 432.285 47.8337 432.242 49.6545C432.242 51.4754 432.221 53.5869 432.178 55.9889C432.178 58.3909 432.178 61.1803 432.178 64.3572V68.7738C432.178 69.1612 432.2 69.4518 432.242 69.6455C432.242 69.8004 432.242 69.9554 432.242 70.1104C432.242 70.2266 432.221 70.3816 432.178 70.5753C432.093 70.924 432.029 71.3307 431.986 71.7957C431.986 71.9894 431.965 72.1831 431.922 72.3768C431.879 72.5318 431.815 72.7061 431.73 72.8998C431.559 73.0548 431.474 73.171 431.474 73.2485L431.282 73.5972C431.068 73.9846 430.663 74.3526 430.065 74.7013C429.126 75.1275 428.08 75.2243 426.927 74.9919C426.201 74.9144 425.646 74.7401 425.262 74.4689C424.878 74.1202 424.6 73.7715 424.43 73.4228C424.173 72.9967 424.024 72.5899 423.981 72.2024C423.853 71.8538 423.789 71.4857 423.789 71.0983V41.2281C423.533 41.2281 422.999 41.2281 422.188 41.2281C421.377 41.2281 420.502 41.2281 419.563 41.2281C418.666 41.1894 417.812 41.1506 417.001 41.1119C416.19 41.0732 415.635 41.0344 415.336 40.9957C415.08 40.9569 414.674 40.8988 414.119 40.8213C413.607 40.7439 413.18 40.6664 412.839 40.5889C411.942 40.3564 411.238 39.9884 410.725 39.4847C410.256 38.9811 410.021 38.4193 410.021 37.7995C410.021 37.567 410.021 37.3345 410.021 37.1021C410.021 36.8696 410.064 36.6566 410.149 36.4629C410.277 35.9979 410.619 35.6105 411.174 35.3006C411.344 35.1844 411.601 35.0488 411.942 34.8938C412.326 34.7001 412.689 34.5645 413.031 34.487C413.543 34.332 414.183 34.2158 414.952 34.1383C415.293 34.0996 415.635 34.0802 415.977 34.0802C416.318 34.0802 416.681 34.0802 417.065 34.0802C418.559 34.0802 419.968 34.0802 421.292 34.0802C422.658 34.0802 424.088 34.0608 425.582 34.0221C428.058 33.9834 430.513 33.9834 432.947 34.0221C435.423 34.0221 437.878 34.0608 440.311 34.1383C440.866 34.1771 441.4 34.2352 441.912 34.3127C442.424 34.3901 442.937 34.5257 443.449 34.7195C443.833 34.8357 444.196 34.9907 444.538 35.1844C444.879 35.3393 445.157 35.5524 445.37 35.8236Z" fill="#B05130"/>
<path d="M407.124 61.3361C407.124 62.4983 407.06 63.68 406.932 64.881C406.804 66.0432 406.547 67.1861 406.163 68.3096C405.779 69.3944 405.203 70.4405 404.434 71.4477C403.666 72.4163 402.62 73.2686 401.296 74.0047C400.656 74.3921 399.887 74.7215 398.991 74.9927C398.137 75.2251 397.219 75.4188 396.237 75.5738C395.298 75.7675 394.359 75.8837 393.42 75.9225C392.48 75.9999 391.605 76.0193 390.794 75.9806C386.952 75.8644 383.835 75.0314 381.444 73.4817C379.096 71.8933 377.282 69.9368 376.001 67.6123C374.763 65.2878 373.952 62.7695 373.568 60.0576C373.226 57.3069 373.162 54.6918 373.376 52.2123C373.504 50.7401 373.781 49.1517 374.208 47.447C374.678 45.7424 375.339 44.0958 376.193 42.5074C377.09 40.919 378.178 39.4855 379.459 38.207C380.783 36.9285 382.341 35.96 384.134 35.3014C385.799 34.6815 387.613 34.2941 389.577 34.1391C391.584 33.9454 393.548 34.0035 395.469 34.3134C397.433 34.6234 399.247 35.1851 400.912 35.9987C402.62 36.8123 403.965 37.8971 404.946 39.2531C405.63 40.2604 406.163 41.4807 406.547 42.9142C406.932 44.3476 406.996 45.723 406.74 47.0402C406.526 48.2025 406.078 49.0161 405.395 49.481C404.712 49.9071 403.965 50.0815 403.153 50.004C402.342 49.8878 401.552 49.5778 400.784 49.0742C400.058 48.5318 399.567 47.8538 399.311 47.0402C399.012 46.1492 398.649 45.3356 398.222 44.5995C397.796 43.8246 397.134 43.1854 396.237 42.6817C395.213 42.1006 394.124 41.7713 392.971 41.6938C391.861 41.6163 390.773 41.7326 389.705 42.0425C388.681 42.3524 387.699 42.8367 386.76 43.4953C385.863 44.1539 385.116 44.9094 384.518 45.7617C383.792 46.7303 383.237 47.7957 382.853 48.958C382.469 50.0815 382.192 51.2631 382.021 52.5029C381.85 53.7039 381.786 54.9242 381.829 56.164C381.914 57.365 382.085 58.5273 382.341 59.6508C382.811 61.5491 383.536 63.3313 384.518 64.9972C384.902 65.6171 385.415 66.1788 386.055 66.6825C386.738 67.1474 387.485 67.5348 388.297 67.8447C389.108 68.1159 389.962 68.2903 390.858 68.3678C391.755 68.4452 392.608 68.3871 393.42 68.1934C394.572 67.9222 395.512 67.5735 396.237 67.1474C396.963 66.6825 397.539 66.1401 397.966 65.5202C398.393 64.9003 398.671 64.2223 398.799 63.4862C398.97 62.7501 399.055 61.9753 399.055 61.1617V61.1036C398.5 61.1036 398.009 61.1036 397.582 61.1036C397.155 61.0649 396.835 61.0455 396.622 61.0455C395.682 61.0455 394.764 60.8905 393.868 60.5806C393.099 60.3481 392.523 59.9801 392.139 59.4764C391.712 59.0503 391.498 58.5273 391.498 57.9074C391.498 57.6749 391.498 57.4619 391.498 57.2681C391.541 57.0357 391.584 56.8032 391.627 56.5708C391.755 56.2608 392.032 55.8734 392.459 55.4085C392.715 55.2148 393.121 55.0598 393.676 54.9436C393.932 54.8661 394.188 54.808 394.444 54.7693C394.7 54.6918 394.999 54.6337 395.341 54.5949C395.597 54.5562 395.874 54.5368 396.173 54.5368C396.472 54.5368 396.771 54.5368 397.07 54.5368H402.897C403.367 54.4981 403.901 54.5562 404.498 54.7112C405.139 54.8274 405.63 55.0211 405.971 55.2923C406.099 55.4473 406.227 55.6022 406.355 55.7572C406.483 55.9122 406.59 56.0865 406.676 56.2802C406.846 56.7064 406.953 57.1325 406.996 57.5587C407.038 57.7912 407.06 58.043 407.06 58.3142C407.102 58.5466 407.124 58.7597 407.124 58.9534V61.3361Z" fill="#B05130"/>
<path d="M368.062 70.7502C368.019 71.4088 367.912 72.1062 367.742 72.8423C367.614 73.5784 367.208 74.1789 366.525 74.6438C366.013 75.0312 365.436 75.2636 364.796 75.3411C364.156 75.4186 363.515 75.3799 362.875 75.2249C362.277 75.1087 361.701 74.915 361.146 74.6438C360.591 74.3338 360.143 73.9658 359.801 73.5396C358.349 71.9124 357.005 70.2465 355.767 68.5419C354.571 66.7985 353.354 65.0551 352.116 63.3117L346.737 55.9313C346.011 54.8853 345.243 53.723 344.432 52.4445C343.621 51.1273 342.788 49.9069 341.934 48.7834L341.742 70.9826V71.5057C341.742 72.1255 341.614 72.7454 341.358 73.3653C341.144 73.9464 340.76 74.4501 340.205 74.8762C339.778 75.1862 339.223 75.3992 338.54 75.5155C337.473 75.7092 336.576 75.6511 335.851 75.3411C335.168 75.0312 334.613 74.605 334.186 74.0626C333.801 73.5202 333.524 72.9004 333.353 72.203C333.225 71.4669 333.204 70.7502 333.289 70.0528V69.0649L333.417 64.5321L333.481 56.1057C333.524 54.8659 333.545 53.6068 333.545 52.3283C333.545 51.0111 333.545 49.6745 333.545 48.3185C333.503 46.6526 333.503 44.8898 333.545 43.0302C333.631 41.1706 333.716 39.4272 333.801 37.8C333.887 36.909 334.122 36.1535 334.506 35.5336C334.677 34.9912 335.125 34.5263 335.851 34.1389C336.32 33.8677 336.918 33.6934 337.644 33.6159C338.412 33.5384 339.074 33.5578 339.629 33.674C339.842 33.7515 340.056 33.8483 340.269 33.9645C340.483 34.042 340.696 34.1389 340.91 34.2551C341.123 34.4101 341.315 34.5651 341.486 34.72C341.699 34.875 341.892 35.0493 342.062 35.243C342.276 35.4367 342.468 35.6498 342.639 35.8823C342.809 36.076 342.98 36.2697 343.151 36.4634C343.279 36.6959 343.407 36.9089 343.535 37.1027C343.663 37.2964 343.813 37.4901 343.983 37.6838L344.688 38.6136L359.481 59.7668V55.9313C359.481 54.6916 359.459 53.4325 359.417 52.154C359.417 50.8367 359.395 49.4808 359.353 48.086C359.353 46.4589 359.353 44.7155 359.353 42.8559C359.395 40.9962 359.459 39.2528 359.545 37.6257C359.545 36.9671 359.758 36.2116 360.185 35.3593C360.399 34.8556 360.762 34.4488 361.274 34.1389C361.786 33.829 362.363 33.6159 363.003 33.4996C363.643 33.3834 364.284 33.3834 364.924 33.4996C365.564 33.6159 366.119 33.8483 366.589 34.197C366.717 34.3132 366.845 34.4488 366.973 34.6038C367.101 34.7588 367.208 34.9331 367.293 35.1268C367.507 35.6305 367.635 36.076 367.678 36.4634C367.806 37.0058 367.87 37.4901 367.87 37.9162C367.87 42.759 367.87 47.6986 367.87 52.7351C367.912 57.7716 367.955 62.7112 367.998 67.554C367.998 68.0963 368.019 68.6387 368.062 69.1811C368.105 69.6848 368.105 70.2078 368.062 70.7502Z" fill="#B05130"/>
<path d="M306.851 40.9963L306.723 50.1201H309.285C311.035 50.0813 312.593 50.0619 313.959 50.0619C315.326 50.0619 316.841 50.0813 318.506 50.1201H318.826C319.339 50.1201 319.83 50.1394 320.299 50.1782C320.812 50.1782 321.303 50.1782 321.772 50.1782C322.284 50.2169 322.775 50.2944 323.245 50.4106C323.715 50.4881 324.184 50.585 324.654 50.7012C325.38 50.9336 325.977 51.2823 326.447 51.7472C326.874 52.2509 327.087 52.8126 327.087 53.4325C327.087 53.6262 327.087 53.8587 327.087 54.1299C327.087 54.3623 327.045 54.5754 326.959 54.7691C326.874 55.1953 326.596 55.5827 326.127 55.9314C325.913 56.2026 325.508 56.3963 324.91 56.5125C324.355 56.6675 323.8 56.7643 323.245 56.8031C322.647 56.9193 322.05 56.9774 321.452 56.9774H318.442L306.595 57.0355L306.467 68.4257L319.211 68.5419H322.22C322.562 68.5419 322.882 68.5419 323.181 68.5419C323.48 68.5419 323.757 68.5613 324.013 68.6C324.355 68.6775 324.654 68.7356 324.91 68.7744C325.209 68.7744 325.486 68.8131 325.743 68.8906C326.255 69.0456 326.682 69.2587 327.023 69.5299C327.45 69.9173 327.728 70.3241 327.856 70.7502C327.898 70.9439 327.92 71.157 327.92 71.3895C327.963 71.5832 327.963 71.7963 327.92 72.0287C327.92 72.6486 327.706 73.2104 327.279 73.714C326.767 74.2564 326.169 74.6051 325.486 74.76C324.59 75.1087 323.608 75.2831 322.541 75.2831C322.071 75.3218 321.58 75.3412 321.068 75.3412C320.555 75.3412 320.064 75.3605 319.595 75.3993H319.211C315.881 75.4768 312.423 75.4768 308.836 75.3993C307.983 75.3993 307.299 75.3799 306.787 75.3412C306.275 75.3412 305.805 75.3412 305.378 75.3412C304.994 75.3412 304.588 75.3412 304.162 75.3412C303.735 75.3412 303.18 75.3412 302.497 75.3412C301.515 75.4186 300.704 75.2637 300.063 74.8763C299.594 74.6051 299.231 74.237 298.974 73.7721C298.846 73.6559 298.782 73.5397 298.782 73.4234C298.74 73.3459 298.697 73.2878 298.654 73.2491C298.612 73.2103 298.569 73.1522 298.526 73.0748C298.441 72.881 298.377 72.6873 298.334 72.4936C298.291 72.2612 298.27 72.0481 298.27 71.8544C298.227 71.6607 298.185 71.467 298.142 71.2732C298.142 71.0795 298.121 70.8858 298.078 70.6921V69.7623C298.078 69.6073 298.078 69.4524 298.078 69.2974C298.121 69.1424 298.142 68.9875 298.142 68.8325V64.2997L298.27 55.9314V48.2023C298.27 46.8076 298.27 45.5679 298.27 44.4831C298.313 43.3983 298.355 42.2167 298.398 40.9382V40.6476C298.441 40.2214 298.462 39.834 298.462 39.4853C298.505 39.0979 298.526 38.7105 298.526 38.3231C298.569 37.5482 298.804 36.7928 299.231 36.0567C299.401 35.7467 299.572 35.4755 299.743 35.2431C299.956 35.0106 300.234 34.8169 300.575 34.6619C301.216 34.3133 301.878 34.1389 302.561 34.1389C302.902 34.1389 303.158 34.1583 303.329 34.197V34.1389C304.098 34.1389 304.717 34.1389 305.186 34.1389C305.656 34.1389 306.104 34.1389 306.531 34.1389C307.001 34.1389 307.492 34.1389 308.004 34.1389C308.516 34.1002 309.221 34.0808 310.117 34.0808C311.825 34.0421 313.447 34.0227 314.984 34.0227C316.521 34.0227 318.101 34.0421 319.723 34.0808H319.979C320.449 34.1196 320.94 34.1389 321.452 34.1389C321.964 34.1389 322.455 34.1583 322.925 34.197C323.394 34.197 323.864 34.2552 324.334 34.3714C324.803 34.4489 325.273 34.5651 325.743 34.7201C326.468 34.9138 327.066 35.2431 327.536 35.708C327.92 36.2504 328.112 36.7928 328.112 37.3352C328.112 37.5676 328.112 37.8001 328.112 38.0325C328.112 38.2262 328.069 38.4199 327.984 38.6136C327.941 39.0011 327.685 39.4079 327.215 39.834C327.045 39.9115 326.853 40.0084 326.639 40.1246C326.468 40.2408 326.255 40.3377 325.999 40.4151C325.742 40.4926 325.465 40.5508 325.166 40.5895C324.91 40.5895 324.654 40.6089 324.398 40.6476C324.056 40.7251 323.736 40.7638 323.437 40.7638C323.181 40.7638 322.882 40.7638 322.541 40.7638H319.659L306.851 40.8219V40.9963Z" fill="#B05130"/>
<path d="M292.83 70.7503C292.916 70.944 292.959 71.2346 292.959 71.622C292.959 71.9707 292.959 72.2613 292.959 72.4937C292.959 72.8037 292.894 73.0942 292.766 73.3654C292.638 73.6366 292.468 73.8884 292.254 74.1209C291.87 74.5858 291.315 74.9345 290.589 75.1669C289.565 75.4769 288.604 75.6318 287.707 75.6318C287.238 75.6706 286.747 75.6899 286.235 75.6899C285.722 75.6899 285.21 75.7287 284.698 75.8062H284.441C281.154 75.8449 277.76 75.8449 274.259 75.8062C273.405 75.7674 272.445 75.7674 271.378 75.8062C270.31 75.8837 269.264 75.8643 268.24 75.7481C267.215 75.6706 266.276 75.4575 265.422 75.1088C264.611 74.7214 264.035 74.1209 263.693 73.3073C263.608 73.1136 263.544 72.9393 263.501 72.7843C263.458 72.5906 263.437 72.3969 263.437 72.2032C263.266 70.8859 263.202 69.5881 263.245 68.3096C263.287 67.0311 263.309 65.772 263.309 64.5322L263.437 56.1058V48.3186C263.437 46.9239 263.437 45.6842 263.437 44.5994C263.48 43.5146 263.522 42.3136 263.565 40.9964V40.7058C263.608 40.3184 263.629 39.931 263.629 39.5436C263.672 39.1561 263.693 38.7687 263.693 38.3813C263.778 37.4902 264.013 36.7348 264.397 36.1149C264.654 35.5337 265.102 35.0688 265.742 34.7202C266.297 34.3715 266.959 34.1971 267.727 34.1971C268.026 34.1971 268.304 34.2165 268.56 34.2553C268.859 34.2553 269.136 34.2746 269.392 34.3134C269.649 34.3521 269.883 34.4296 270.097 34.5458C270.353 34.662 270.609 34.817 270.865 35.0107C271.121 35.2819 271.356 35.6112 271.57 35.9987C271.74 36.4248 271.847 36.851 271.89 37.2771C271.933 37.5483 271.975 37.8002 272.018 38.0326C272.061 38.2651 272.082 38.4975 272.082 38.73C271.997 38.9624 271.954 39.1949 271.954 39.4273C271.954 39.6598 271.954 39.8729 271.954 40.0666V41.1126L271.698 68.4839L284.377 68.6001H287.387C287.643 68.6001 287.921 68.6195 288.22 68.6583C288.519 68.6583 288.817 68.6776 289.116 68.7164C289.458 68.7551 289.757 68.7938 290.013 68.8326C290.269 68.8713 290.525 68.9294 290.781 69.0069C291.251 69.1232 291.635 69.3169 291.934 69.5881C292.404 69.9755 292.702 70.3629 292.83 70.7503Z" fill="#B05130"/>
<path d="M236.871 40.9963L236.743 50.1201H239.305C241.055 50.0813 242.613 50.0619 243.979 50.0619C245.346 50.0619 246.861 50.0813 248.526 50.1201H248.846C249.359 50.1201 249.85 50.1394 250.319 50.1782C250.832 50.1782 251.322 50.1782 251.792 50.1782C252.304 50.2169 252.795 50.2944 253.265 50.4106C253.735 50.4881 254.204 50.585 254.674 50.7012C255.4 50.9336 255.997 51.2823 256.467 51.7472C256.894 52.2509 257.107 52.8126 257.107 53.4325C257.107 53.6262 257.107 53.8587 257.107 54.1299C257.107 54.3623 257.065 54.5754 256.979 54.7691C256.894 55.1953 256.616 55.5827 256.147 55.9314C255.933 56.2026 255.528 56.3963 254.93 56.5125C254.375 56.6675 253.82 56.7643 253.265 56.8031C252.667 56.9193 252.07 56.9774 251.472 56.9774H248.462L236.615 57.0355L236.487 68.4257L249.231 68.5419H252.24C252.582 68.5419 252.902 68.5419 253.201 68.5419C253.5 68.5419 253.777 68.5613 254.033 68.6C254.375 68.6775 254.674 68.7356 254.93 68.7744C255.229 68.7744 255.506 68.8131 255.762 68.8906C256.275 69.0456 256.702 69.2587 257.043 69.5299C257.47 69.9173 257.748 70.3241 257.876 70.7502C257.918 70.9439 257.94 71.157 257.94 71.3895C257.982 71.5832 257.982 71.7963 257.94 72.0287C257.94 72.6486 257.726 73.2104 257.299 73.714C256.787 74.2564 256.189 74.6051 255.506 74.76C254.61 75.1087 253.628 75.2831 252.561 75.2831C252.091 75.3218 251.6 75.3412 251.088 75.3412C250.575 75.3412 250.084 75.3605 249.615 75.3993H249.231C245.901 75.4768 242.442 75.4768 238.856 75.3993C238.002 75.3993 237.319 75.3799 236.807 75.3412C236.295 75.3412 235.825 75.3412 235.398 75.3412C235.014 75.3412 234.608 75.3412 234.182 75.3412C233.755 75.3412 233.2 75.3412 232.517 75.3412C231.535 75.4186 230.723 75.2637 230.083 74.8763C229.613 74.6051 229.251 74.237 228.994 73.7721C228.866 73.6559 228.802 73.5397 228.802 73.4234C228.76 73.3459 228.717 73.2878 228.674 73.2491C228.632 73.2103 228.589 73.1522 228.546 73.0748C228.461 72.881 228.397 72.6873 228.354 72.4936C228.311 72.2612 228.29 72.0481 228.29 71.8544C228.247 71.6607 228.205 71.467 228.162 71.2732C228.162 71.0795 228.141 70.8858 228.098 70.6921V69.7623C228.098 69.6073 228.098 69.4524 228.098 69.2974C228.141 69.1424 228.162 68.9875 228.162 68.8325V64.2997L228.29 55.9314V48.2023C228.29 46.8076 228.29 45.5679 228.29 44.4831C228.333 43.3983 228.375 42.2167 228.418 40.9382V40.6476C228.461 40.2214 228.482 39.834 228.482 39.4853C228.525 39.0979 228.546 38.7105 228.546 38.3231C228.589 37.5482 228.824 36.7928 229.251 36.0567C229.421 35.7467 229.592 35.4755 229.763 35.2431C229.976 35.0106 230.254 34.8169 230.595 34.6619C231.236 34.3133 231.898 34.1389 232.581 34.1389C232.922 34.1389 233.178 34.1583 233.349 34.197V34.1389C234.117 34.1389 234.737 34.1389 235.206 34.1389C235.676 34.1389 236.124 34.1389 236.551 34.1389C237.021 34.1389 237.512 34.1389 238.024 34.1389C238.536 34.1002 239.241 34.0808 240.137 34.0808C241.845 34.0421 243.467 34.0227 245.004 34.0227C246.541 34.0227 248.121 34.0421 249.743 34.0808H249.999C250.469 34.1196 250.96 34.1389 251.472 34.1389C251.984 34.1389 252.475 34.1583 252.945 34.197C253.414 34.197 253.884 34.2552 254.354 34.3714C254.823 34.4489 255.293 34.5651 255.762 34.7201C256.488 34.9138 257.086 35.2431 257.556 35.708C257.94 36.2504 258.132 36.7928 258.132 37.3352C258.132 37.5676 258.132 37.8001 258.132 38.0325C258.132 38.2262 258.089 38.4199 258.004 38.6136C257.961 39.0011 257.705 39.4079 257.235 39.834C257.065 39.9115 256.872 40.0084 256.659 40.1246C256.488 40.2408 256.275 40.3377 256.019 40.4151C255.762 40.4926 255.485 40.5508 255.186 40.5895C254.93 40.5895 254.674 40.6089 254.418 40.6476C254.076 40.7251 253.756 40.7638 253.457 40.7638C253.201 40.7638 252.902 40.7638 252.561 40.7638H249.679L236.871 40.8219V40.9963Z" fill="#B05130"/>
<path d="M222.795 36.8123C223.008 37.7033 223.029 38.6138 222.859 39.5436C222.731 40.4347 222.538 41.2482 222.282 41.9843C221.77 43.4953 221.172 45.1806 220.489 47.0402C219.806 48.8998 219.123 50.7594 218.44 52.6191C217.757 54.4787 217.095 56.2414 216.455 57.9074C215.814 59.5345 215.281 60.8905 214.854 61.9753C214.427 62.9826 213.979 64.1255 213.509 65.404C213.039 66.6824 212.463 67.9416 211.78 69.1813C211.14 70.3823 210.371 71.4865 209.475 72.4938C208.621 73.5011 207.575 74.2372 206.337 74.7021C205.099 75.167 203.967 75.2832 202.943 75.0507C201.918 74.7795 201 74.3146 200.189 73.656C199.378 72.9587 198.631 72.1063 197.948 71.0991C197.307 70.053 196.731 68.9876 196.219 67.9028C195.706 66.818 195.237 65.772 194.81 64.7647C194.383 63.7187 193.999 62.8276 193.657 62.0915C192.334 59.457 191.138 56.6676 190.071 53.7232C189.004 50.7788 187.915 47.97 186.805 45.2968C186.506 44.522 186.165 43.5921 185.78 42.5074C185.396 41.3838 185.14 40.2797 185.012 39.1949C184.927 38.0714 185.076 37.0641 185.46 36.173C185.844 35.2432 186.656 34.604 187.894 34.2553C188.15 34.1778 188.406 34.1197 188.662 34.081C188.961 34.0035 189.238 33.9454 189.495 33.9066C189.793 33.9066 190.071 33.926 190.327 33.9647C190.583 34.0035 190.861 34.1003 191.16 34.2553C191.373 34.3328 191.587 34.4296 191.8 34.5459C192.013 34.6233 192.206 34.7396 192.376 34.8945C192.547 35.0883 192.697 35.282 192.825 35.4757C192.995 35.6694 193.166 35.8631 193.337 36.0568C193.465 36.328 193.572 36.5798 193.657 36.8123C193.785 37.006 193.892 37.1997 193.977 37.3934C194.063 37.6646 194.169 37.9164 194.297 38.1489C194.426 38.3426 194.532 38.5363 194.618 38.73L195.002 39.7179L204.223 63.6024L213.317 39.776L213.765 38.7881C213.851 38.5944 213.936 38.4007 214.021 38.207C214.107 37.9745 214.192 37.7227 214.277 37.4515C214.363 37.2578 214.448 37.0641 214.534 36.8704C214.662 36.6379 214.811 36.4055 214.982 36.173C215.11 35.9793 215.238 35.7856 215.366 35.5919C215.537 35.3594 215.708 35.1464 215.878 34.9527C216.006 34.7977 216.156 34.6621 216.327 34.5459C216.54 34.4296 216.732 34.3328 216.903 34.2553C217.245 34.1003 217.543 34.0035 217.8 33.9647C218.098 33.926 218.355 33.9066 218.568 33.9066C218.824 33.9454 219.08 34.0035 219.336 34.081C219.635 34.1197 219.913 34.1778 220.169 34.2553C220.98 34.449 221.578 34.7783 221.962 35.2432C222.389 35.7081 222.666 36.2311 222.795 36.8123Z" fill="#B05130"/>
<path d="M186.061 71.2151C186.104 71.4476 186.125 71.68 186.125 71.9125C186.168 72.1062 186.189 72.3387 186.189 72.6098C186.189 73.0748 186.04 73.5009 185.741 73.8883C185.613 74.082 185.442 74.2758 185.229 74.4695C185.015 74.6244 184.759 74.76 184.46 74.8763C183.393 75.4186 182.261 75.6124 181.066 75.4574C180.468 75.3024 179.935 75.0506 179.465 74.7019C179.38 74.6244 179.316 74.5857 179.273 74.5857C179.23 74.547 179.188 74.4888 179.145 74.4114C179.102 74.3726 179.06 74.3339 179.017 74.2951C178.974 74.2176 178.91 74.1595 178.825 74.1208C178.611 73.9271 178.441 73.7527 178.312 73.5978C178.184 73.4041 178.056 73.2104 177.928 73.0166C177.843 72.8229 177.736 72.6486 177.608 72.4936C177.523 72.2999 177.416 72.1062 177.288 71.9125C177.202 71.7575 177.117 71.6219 177.032 71.5057C176.946 71.3507 176.882 71.1958 176.84 71.0408C176.669 70.6921 176.562 70.3822 176.519 70.111L175.175 67.2634C172.229 67.2634 169.283 67.2828 166.337 67.3215C163.434 67.3215 160.51 67.3022 157.564 67.2634L156.219 70.111C156.134 70.2659 156.07 70.4209 156.027 70.5759C156.027 70.7309 155.984 70.8858 155.899 71.0408C155.814 71.1958 155.728 71.3507 155.643 71.5057C155.6 71.6219 155.536 71.7575 155.451 71.9125C155.323 72.1062 155.195 72.2999 155.067 72.4936C154.981 72.6486 154.874 72.8229 154.746 73.0166C154.661 73.2104 154.554 73.4041 154.426 73.5978C154.298 73.7527 154.127 73.9271 153.914 74.1208C153.828 74.1595 153.764 74.2176 153.722 74.2951C153.679 74.3339 153.636 74.3726 153.594 74.4114C153.551 74.4888 153.508 74.547 153.466 74.5857C153.423 74.5857 153.359 74.6244 153.273 74.7019C152.804 75.0506 152.27 75.3024 151.673 75.4574C150.477 75.6124 149.346 75.4186 148.278 74.8763C147.98 74.76 147.723 74.6244 147.51 74.4695C147.297 74.2758 147.126 74.082 146.998 73.8883C146.699 73.5009 146.549 73.0748 146.549 72.6098C146.549 72.3387 146.549 72.1062 146.549 71.9125C146.592 71.68 146.635 71.4476 146.678 71.2151C146.763 70.8664 146.87 70.5178 146.998 70.1691C147.126 69.8204 147.19 69.6461 147.19 69.6461L160.51 39.8921L160.894 38.9623C160.979 38.7299 161.086 38.5168 161.214 38.3231C161.342 38.1294 161.449 37.8969 161.534 37.6257C161.748 37.1221 161.983 36.6765 162.239 36.2891C162.367 36.0567 162.516 35.8436 162.687 35.6499C162.858 35.4562 163.029 35.2624 163.199 35.0687C163.456 34.7588 163.818 34.507 164.288 34.3133C164.886 34.1196 165.569 34.0227 166.337 34.0227C167.148 34.0227 167.853 34.1196 168.451 34.3133C168.92 34.507 169.283 34.7588 169.539 35.0687C169.838 35.4174 170.158 35.8242 170.5 36.2891C170.756 36.6765 170.991 37.1221 171.204 37.6257C171.29 37.8969 171.396 38.1294 171.524 38.3231C171.652 38.5168 171.759 38.7299 171.845 38.9623L172.229 39.8921L185.549 69.6461C185.549 69.6461 185.613 69.8204 185.741 70.1691C185.869 70.5178 185.976 70.8664 186.061 71.2151ZM170.884 56.9774C170.329 55.8539 169.753 54.6916 169.155 53.4906C168.6 52.2896 168.002 51.0692 167.362 49.8295C167.191 49.4808 167.02 49.1321 166.85 48.7834C166.679 48.396 166.508 48.028 166.337 47.6793C166.209 48.028 166.06 48.396 165.889 48.7834C165.718 49.1321 165.547 49.4808 165.377 49.8295C164.736 51.0692 164.117 52.2896 163.52 53.4906C162.965 54.6916 162.41 55.8539 161.855 56.9774L160.702 59.5344H172.037L170.884 56.9774Z" fill="#B05130"/>
<path d="M129.716 29.4157C132.424 23.1769 139.68 20.3137 145.922 23.0206L146.675 23.3473C146.953 23.4676 147.08 23.7899 146.96 24.0672L130.396 62.2238C128.891 65.6898 124.86 67.2804 121.393 65.7766C117.925 64.2728 116.333 60.244 117.838 56.778L129.716 29.4157Z" fill="url(#paint0_linear_208_16)"/>
<path d="M46.2892 29.5682C43.5809 23.3294 36.3253 20.4662 30.0832 23.1731L29.3298 23.4999C29.0523 23.6202 28.925 23.9425 29.0454 24.2198L45.6092 62.3763C47.1138 65.8423 51.1447 67.433 54.6125 65.9292C58.0803 64.4253 59.6718 60.3965 58.1672 56.9305L46.2892 29.5682Z" fill="url(#paint1_linear_208_16)"/>
<path d="M100.273 66.507C96.2344 56.1086 92.4556 45.8471 91.1009 42.4266C89.7463 39.0061 88.5685 34.9015 85.0778 30.9338C81.587 26.966 79.123 27.2396 76.5905 26.966C80.6973 22.8614 84.6671 22.0405 87.6102 22.0405C90.5534 22.0405 96.4397 23.6823 99.3828 29.0867C102.326 34.491 107.424 47.6338 112.387 59.5975C113.551 62.4024 116.22 69.3118 123.886 70.68C116.768 78.2051 103.886 75.8107 100.273 66.507Z" fill="url(#paint2_linear_208_16)"/>
<path d="M75.2216 66.5206C79.2599 56.1223 78.7123 57.0664 84.2563 42.1531C87.8931 32.3705 74.9478 28.0606 71.7993 37.1592C68.6508 46.2577 68.0348 47.7763 63.3805 60.0222L63.3604 60.0753C62.2717 62.9405 59.8424 69.3339 52.224 70.6936C59.3423 78.2187 71.6084 75.8244 75.2216 66.5206Z" fill="url(#paint3_linear_208_16)"/>
<defs>
<linearGradient id="paint0_linear_208_16" x1="5.60426" y1="56.2377" x2="146.549" y2="56.2377" gradientUnits="userSpaceOnUse">
<stop stop-color="#FFC165"/>
<stop offset="1" stop-color="#B05130"/>
</linearGradient>
<linearGradient id="paint1_linear_208_16" x1="5.60426" y1="56.2377" x2="146.549" y2="56.2377" gradientUnits="userSpaceOnUse">
<stop stop-color="#FFC165"/>
<stop offset="1" stop-color="#B05130"/>
</linearGradient>
<linearGradient id="paint2_linear_208_16" x1="5.60426" y1="56.2377" x2="146.549" y2="56.2377" gradientUnits="userSpaceOnUse">
<stop stop-color="#FFC165"/>
<stop offset="1" stop-color="#B05130"/>
</linearGradient>
<linearGradient id="paint3_linear_208_16" x1="5.60426" y1="56.2377" x2="146.549" y2="56.2377" gradientUnits="userSpaceOnUse">
<stop stop-color="#FFC165"/>
<stop offset="1" stop-color="#B05130"/>
</linearGradient>
</defs>
</svg>
