<svg width="28" height="48" viewBox="0 0 28 48" fill="none" xmlns="http://www.w3.org/2000/svg">
<path d="M27.6485 47.718C27.611 47.898 27.4145 48 27.086 48H20.8115C20.438 48 20.1095 47.8365 19.8275 47.508L9.46703 34.3275L6.56903 37.0695V47.295C6.56903 47.7645 6.34253 47.9985 5.87453 47.9985H1.00703C0.539028 47.9985 0.303528 47.7645 0.303528 47.295V0.7035C0.303528 0.2415 0.539028 0 1.00703 0H5.87453C6.34253 0 6.56903 0.2415 6.56903 0.7035V29.3895L18.9755 16.851C19.3115 16.515 19.64 16.359 19.967 16.359H26.4455C26.7335 16.359 26.921 16.4745 27.0155 16.7175C27.11 17.016 27.086 17.226 26.945 17.343L13.835 30.0315L27.5075 47.046C27.695 47.2575 27.7415 47.46 27.647 47.766L27.6485 47.718Z" fill="#8B8B8B"/>
</svg>
