<svg width="48" height="48" viewBox="0 0 48 48" fill="none" xmlns="http://www.w3.org/2000/svg">
<path d="M9.40621 0C4.23353 0 0 4.23343 0 9.40621V38.5953C0 43.768 4.23343 48 9.40621 48H38.5953C43.7681 48 48 43.7681 48 38.5953V9.40621C48 4.23353 43.7681 0 38.5953 0H9.40621ZM11.772 7.92096C14.2522 7.92096 15.7799 9.54916 15.827 11.6894C15.827 13.7824 14.2521 15.4564 11.724 15.4564H11.6775C9.24452 15.4564 7.67198 13.7825 7.67198 11.6894C7.67198 9.54921 9.29211 7.92096 11.772 7.92096H11.772ZM33.1452 17.9242C37.9151 17.9242 41.4908 21.0418 41.4908 27.7414V40.2485H34.2418V28.58C34.2418 25.6478 33.1927 23.6474 30.5694 23.6474C28.5667 23.6474 27.373 24.9957 26.8489 26.2982C26.6575 26.7642 26.6104 27.415 26.6104 28.0669V40.2485H19.3615C19.3615 40.2485 19.4566 20.4824 19.3615 18.4357H26.6119V21.5246C27.5752 20.0384 29.2983 17.9242 33.1452 17.9242V17.9242ZM8.09956 18.4373H15.3485V40.2485H8.09956V18.4373Z" fill="#8B8B8B"/>
</svg>
