<svg width="60" height="48" viewBox="0 0 60 48" fill="none" xmlns="http://www.w3.org/2000/svg">
<path d="M59.084 5.7018C56.9112 6.63908 54.5467 7.31363 52.1112 7.57636C54.6398 6.07413 56.5334 3.70085 57.4366 0.901804C55.0639 2.31332 52.4645 3.30311 49.7538 3.82725C48.6209 2.61607 47.2507 1.6512 45.7285 0.992744C44.2064 0.33429 42.5649 -0.00363397 40.9065 2.94703e-05C34.1964 2.94703e-05 28.8 5.43908 28.8 12.1136C28.8 13.0509 28.9136 13.9882 29.0982 14.89C19.0509 14.3645 10.0899 9.56452 4.13254 2.21541C3.04704 4.06949 2.4782 6.18056 2.4852 8.32902C2.4852 12.5326 4.62248 16.2391 7.88165 18.419C5.96097 18.3433 4.08527 17.8154 2.4071 16.8781V17.0272C2.4071 22.9136 6.56804 27.7917 12.1136 28.9136C11.0724 29.1841 10.0012 29.3225 8.92544 29.3255C8.13727 29.3255 7.39171 29.2474 6.63905 29.1408C8.17278 33.9408 12.639 37.4272 17.9574 37.5408C13.7964 40.8 8.58461 42.7172 2.92544 42.7172C1.91006 42.7172 0.97278 42.6817 0 42.5681C5.36804 46.0118 11.7373 48 18.5964 48C40.8639 48 53.0485 29.5527 53.0485 13.5409C53.0485 13.0154 53.0485 12.49 53.013 11.9645C55.3704 10.2391 57.4366 8.1018 59.084 5.7018Z" fill="#8B8B8B"/>
</svg>
